<svg xmlns="http://www.w3.org/2000/svg" xmlns:xlink="http://www.w3.org/1999/xlink" width="1080" zoomAndPan="magnify" viewBox="0 0 810 809.999993" height="1080" preserveAspectRatio="xMidYMid meet" version="1.0"><defs><clipPath id="4c50900747"><path d="M 126 257.867188 L 708.222656 257.867188 L 708.222656 809.871094 L 126 809.871094 Z M 126 257.867188 " clip-rule="nonzero"/></clipPath></defs><path fill="#1c2e44" d="M 163.902344 465.9375 C 150.75 459.109375 139.515625 449.554688 130.503906 437.566406 C 101.335938 398.675781 105.203125 343.457031 139.5 309.078125 C 166.867188 281.683594 206.445312 272.792969 242.820312 285.90625 C 248.578125 287.984375 252.257812 293.460938 251.992188 299.535156 C 251.742188 305.597656 247.625 310.71875 241.75 312.28125 C 227.101562 316.210938 213.800781 324.203125 203.296875 335.421875 C 180.484375 359.785156 174.992188 396.398438 189.613281 426.53125 C 191.570312 430.539062 193.820312 434.378906 196.308594 437.9375 L 182.441406 447.664062 C 179.4375 443.363281 176.722656 438.746094 174.382812 433.929688 C 156.703125 397.523438 163.359375 353.289062 190.9375 323.84375 C 201.257812 312.820312 213.816406 304.378906 227.695312 299.058594 C 200.292969 292.65625 171.816406 300.6875 151.488281 321.054688 C 123.105469 349.488281 119.902344 395.210938 144.054688 427.40625 C 151.515625 437.34375 160.820312 445.253906 171.710938 450.890625 L 163.902344 465.9375 " fill-opacity="1" fill-rule="nonzero"/><g clip-path="url(#4c50900747)"><path fill="#1c2e44" d="M 145.242188 785.363281 C 152.984375 789.082031 171.949219 796.109375 197.699219 791.359375 C 189.8125 778.230469 173.335938 771.070312 173.152344 770.992188 L 167.804688 768.78125 L 169.273438 696.769531 L 173.324219 694.363281 C 250.722656 648.511719 270.332031 590.777344 270.53125 590.195312 L 272.964844 582.769531 L 280.5625 584.582031 C 281.714844 584.859375 396.003906 612.214844 463.371094 616.898438 L 469.65625 617.332031 L 471.046875 623.488281 C 481.449219 669.300781 473.457031 733.253906 471.457031 747.503906 L 492.40625 787.507812 C 500.160156 789.320312 519.703125 793.144531 537 790.511719 C 534.035156 782.585938 524.984375 773.519531 511.59375 771.546875 L 506.128906 770.742188 L 504.660156 765.410156 C 484.902344 693.105469 514.820312 625.351562 532.699219 584.875 C 537.449219 574.117188 541.550781 564.828125 543.3125 558.566406 L 559.613281 563.132812 C 557.535156 570.554688 553.40625 579.898438 548.195312 591.714844 C 547.160156 594.058594 546.089844 596.492188 544.976562 599.019531 C 570.34375 581.050781 587.058594 552.46875 589.769531 521.027344 L 598.941406 411.140625 L 661.585938 391.859375 C 669.683594 389.28125 675.308594 384.875 678.707031 378.417969 L 689.863281 357.269531 L 616.804688 352.746094 L 615.046875 347.242188 C 607.25 322.933594 588.410156 320.773438 572.847656 321.636719 L 564.878906 322.058594 L 560.632812 285.296875 L 523.261719 336.679688 L 522.351562 337.394531 C 486.847656 365.59375 464.628906 418.3125 462.207031 424.242188 L 460.765625 427.789062 L 457.019531 429.296875 C 452.996094 430.792969 352.890625 467.234375 256.886719 447.015625 C 219.054688 439.050781 187.761719 447.453125 168.746094 470.664062 C 150.179688 493.304688 146.328125 526.902344 158.914062 556.25 C 180.761719 607.171875 150.867188 662.21875 143.773438 674.089844 Z M 180.65625 809.871094 C 151.726562 809.871094 133.242188 798.199219 132.234375 797.539062 L 128.425781 795.074219 L 126.769531 669.300781 L 128.171875 667.140625 C 128.519531 666.585938 163.875 610.785156 143.351562 562.921875 C 128.292969 527.828125 133.121094 487.402344 155.644531 459.917969 C 178.867188 431.585938 216.066406 421.105469 260.382812 430.449219 C 342.066406 447.636719 429.746094 420.628906 447.917969 414.527344 C 454.613281 398.953125 476.511719 352.679688 510.902344 324.863281 L 556.476562 262.21875 C 559.085938 258.699219 563.453125 257.152344 567.621094 258.183594 C 571.800781 259.230469 574.925781 262.65625 575.546875 266.917969 L 579.914062 304.605469 C 604.128906 305.332031 620.65625 316.039062 629.152344 336.546875 L 695.195312 340.636719 C 700.238281 341.113281 704.417969 343.90625 706.683594 348.101562 C 708.945312 352.308594 708.972656 357.324219 706.75 361.546875 L 693.703125 386.316406 C 688.183594 396.769531 679.09375 404.0625 666.640625 408.019531 L 614.875 423.964844 L 606.65625 522.457031 C 602.925781 565.699219 576.351562 604.273438 537.289062 623.15625 C 536.335938 623.621094 535.382812 624.054688 534.433594 624.492188 C 520.539062 660.722656 508.164062 707.59375 519.71875 755.933594 C 542.34375 761.808594 556.054688 781.394531 554.929688 797.722656 L 554.507812 803.664062 L 548.777344 805.277344 C 520.933594 813.164062 485.828125 803.359375 484.347656 802.9375 L 480.851562 801.945312 L 453.882812 750.46875 L 454.308594 747.714844 C 454.414062 747.015625 464.429688 680.691406 455.761719 633.304688 C 396.070312 628.199219 309.277344 608.679688 283.765625 602.738281 C 275.945312 620.511719 250.550781 666.984375 186.015625 706.496094 L 184.96875 757.957031 C 194.191406 762.933594 212.519531 775.132812 217.507812 795.300781 L 219.464844 803.265625 L 211.578125 805.492188 C 200.359375 808.667969 189.957031 809.871094 180.65625 809.871094 " fill-opacity="1" fill-rule="nonzero"/></g><path fill="#1c2e44" d="M 568.546875 796.675781 C 552.257812 796.675781 540.148438 793.078125 539.40625 792.851562 L 544.316406 776.644531 C 544.515625 776.710938 562.882812 782.070312 583.261719 778.496094 C 580.335938 770.542969 571.273438 761.410156 557.828125 759.441406 L 553.527344 758.804688 L 551.542969 754.941406 C 521.09375 695.949219 546.15625 636.507812 570.398438 579.011719 C 572.609375 573.785156 574.804688 568.558594 576.960938 563.34375 L 592.617188 569.816406 C 590.445312 575.070312 588.222656 580.335938 586 585.589844 C 562.789062 640.664062 540.835938 692.734375 564.789062 743.535156 C 588.105469 749.011719 602.316406 769.007812 601.152344 785.601562 L 600.742188 791.542969 L 595.011719 793.15625 C 585.75 795.789062 576.632812 796.675781 568.546875 796.675781 " fill-opacity="1" fill-rule="nonzero"/><path fill="#1c2e44" d="M 220.960938 799.203125 C 214.648438 799.203125 207.492188 798.476562 199.578125 796.558594 L 203.546875 780.109375 C 219.769531 784.011719 231.496094 781.910156 237.953125 779.832031 C 231.429688 766.335938 210.152344 760.871094 209.898438 760.816406 L 203.996094 759.335938 L 199.894531 708.453125 L 205.03125 705.902344 C 302.738281 657.496094 316.132812 600.355469 316.25 599.789062 L 332.804688 603.375 C 332.234375 605.980469 317.972656 667.007812 217.691406 718.484375 L 219.917969 746.222656 C 230.992188 750.191406 253.699219 761 256.503906 783.589844 L 257.167969 788.9375 L 252.613281 791.792969 C 251.992188 792.191406 240.546875 799.203125 220.960938 799.203125 " fill-opacity="1" fill-rule="nonzero"/></svg>