<svg xmlns="http://www.w3.org/2000/svg" xmlns:xlink="http://www.w3.org/1999/xlink" width="1080" zoomAndPan="magnify" viewBox="0 0 810 809.999993" height="1080" preserveAspectRatio="xMidYMid meet" version="1.0"><defs><clipPath id="4720b89145"><path d="M 203 301.820312 L 609 301.820312 L 609 810 L 203 810 Z M 203 301.820312 " clip-rule="nonzero"/></clipPath></defs><g clip-path="url(#4720b89145)"><path fill="#1c2e44" d="M 607.652344 783.90625 C 606.648438 778.886719 604.640625 771.105469 602.378906 762.070312 C 597.738281 743.625 590.710938 715.894531 591.339844 706.609375 C 592.089844 695.945312 587.324219 690.421875 582.554688 685.152344 C 579.417969 681.640625 576.15625 678 573.769531 671.976562 C 572.140625 667.710938 569.253906 655.914062 565.867188 642.113281 C 556.707031 603.964844 542.777344 546.371094 525.210938 522.027344 C 522.074219 517.761719 518.9375 513.621094 515.546875 509.730469 C 530.980469 504.960938 540.519531 494.046875 543.78125 477.105469 C 544.660156 472.714844 541.773438 468.445312 537.382812 467.695312 C 532.988281 466.816406 528.722656 469.703125 527.96875 474.09375 C 525.460938 486.640625 519.1875 493.042969 506.640625 495.425781 C 505.382812 495.675781 504.253906 496.179688 503.375 496.929688 C 481.417969 475.726562 455.820312 461.921875 432.230469 459.414062 C 429.84375 459.160156 427.210938 458.910156 424.574219 458.660156 C 402.613281 456.402344 369.363281 453.136719 357.691406 438.582031 C 355.308594 435.570312 353.804688 432.183594 353.425781 428.292969 C 361.082031 429.046875 374.382812 430.175781 386.929688 430.175781 C 400.609375 430.175781 409.894531 428.796875 415.164062 426.160156 C 429.59375 418.757812 444.023438 401.0625 442.394531 392.90625 C 441.640625 389.269531 438.503906 386.507812 418.425781 371.449219 C 411.773438 366.429688 402.867188 359.78125 400.609375 357.398438 C 400.480469 356.644531 400.230469 355.261719 399.980469 354.007812 C 398.222656 344.472656 394.585938 324.773438 380.90625 315.613281 C 369.238281 307.832031 347.277344 301.933594 330.085938 301.933594 C 320.675781 301.933594 312.898438 303.566406 307 306.703125 C 289.808594 315.988281 275.503906 342.085938 267.347656 367.058594 C 267.347656 367.183594 267.222656 367.433594 267.222656 367.558594 C 265.589844 372.707031 264.210938 377.722656 263.082031 382.492188 C 258.5625 402.066406 249.152344 425.40625 242.878906 440.839844 C 237.859375 453.136719 236.226562 457.40625 236.101562 459.914062 C 235.976562 460.792969 234.847656 464.808594 233.84375 468.699219 C 228.449219 489.027344 215.648438 536.835938 219.789062 570.589844 C 225.183594 613.753906 231.710938 739.359375 228.195312 750.027344 C 226.566406 754.792969 226.0625 755.046875 224.433594 755.671875 C 222.300781 756.550781 219.164062 757.804688 215.023438 761.945312 C 208.496094 768.347656 201.09375 781.648438 204.859375 791.058594 C 206.488281 795.199219 210.753906 799.96875 221.421875 799.96875 C 222.300781 799.96875 223.179688 799.96875 224.054688 799.839844 C 246.644531 798.335938 250.785156 795.324219 257.683594 784.28125 L 258.3125 783.402344 C 264.085938 774.117188 264.835938 756.050781 265.714844 736.851562 C 265.839844 733.839844 265.964844 730.953125 266.09375 727.941406 C 266.59375 718.53125 268.851562 694.4375 271.363281 668.839844 C 273.746094 644.246094 276.257812 618.898438 277.132812 605.222656 C 284.664062 607.605469 296.457031 611.242188 305.117188 613 C 308.128906 623.414062 316.910156 657.171875 316.285156 689.167969 C 315.90625 709.746094 315.03125 752.660156 310.511719 760.941406 C 309.132812 763.453125 307.25 765.835938 305.242188 768.347656 C 301.476562 773.113281 297.210938 778.636719 294.578125 786.667969 C 293.195312 791.183594 293.699219 795.449219 296.207031 798.835938 C 299.21875 802.980469 304.867188 805.363281 312.144531 805.363281 C 316.535156 805.363281 321.304688 804.484375 325.320312 802.726562 C 338.242188 797.457031 344.644531 790.554688 347.402344 779.261719 C 348.40625 775.246094 349.285156 764.957031 350.917969 747.265625 C 352.925781 724.425781 355.433594 696.070312 358.570312 683.269531 C 363.214844 664.324219 368.988281 608.734375 370.742188 591.667969 C 377.269531 591.292969 388.058594 590.414062 395.964844 588.65625 C 398.097656 604.46875 403.746094 635.210938 416.167969 652.023438 C 420.433594 657.796875 425.703125 663.695312 431.226562 669.96875 C 445.027344 685.402344 460.585938 702.96875 459.582031 717.652344 C 457.828125 740.867188 451.929688 755.171875 449.796875 757.179688 C 439.757812 765.207031 438.378906 774.242188 440.386719 780.015625 C 442.769531 786.917969 449.921875 790.679688 458.203125 789.300781 C 472.007812 787.042969 483.800781 773.238281 486.8125 764.582031 C 489.324219 757.304688 498.230469 697.199219 495.597656 685.152344 C 494.46875 679.882812 491.078125 676.117188 487.441406 672.226562 C 481.792969 666.203125 474.890625 658.800781 472.757812 641.359375 C 470.5 622.664062 472.632812 613.878906 474.015625 610.492188 L 484.804688 610.113281 C 496.726562 623.414062 523.328125 654.160156 528.097656 665.328125 C 530.230469 670.34375 534.621094 677.75 539.765625 686.28125 C 550.558594 704.226562 565.363281 728.820312 565.613281 743 C 566.117188 764.707031 568.25 792.816406 575.902344 803.855469 C 578.664062 807.746094 582.929688 809.878906 587.824219 809.878906 C 593.472656 809.878906 599.117188 806.992188 603.007812 802.351562 C 607.398438 797.457031 608.90625 790.808594 607.652344 783.90625 M 300.597656 327.28125 C 301.476562 333.304688 303.234375 340.082031 305.117188 347.105469 C 309.007812 361.664062 314.152344 381.613281 306.621094 384.75 C 306.246094 384.875 305.996094 385.003906 305.742188 385.253906 C 304.488281 386.007812 299.847656 386.757812 294.449219 384.875 C 289.558594 383.121094 282.90625 378.980469 279.015625 368.941406 C 284.539062 352.125 292.316406 337.195312 300.597656 327.28125 Z M 594.222656 795.324219 C 592.59375 797.332031 590.082031 798.710938 587.949219 798.710938 C 586.445312 798.710938 585.816406 798.085938 585.441406 797.582031 C 580.921875 791.183594 577.785156 770.355469 577.160156 743.125 C 576.78125 725.808594 561.726562 700.710938 549.679688 680.636719 C 544.785156 672.480469 540.519531 665.328125 538.636719 661.058594 C 532.113281 645.875 497.226562 606.976562 491.832031 601.082031 L 490.953125 599.824219 C 484.429688 589.914062 467.238281 563.6875 437.75 556.410156 C 434.613281 555.65625 431.601562 557.539062 430.847656 560.675781 C 430.09375 563.8125 431.976562 566.824219 435.113281 567.578125 C 455.191406 572.46875 468.996094 588.53125 476.773438 599.324219 L 470.5 599.574219 C 469.121094 599.574219 467.738281 600.203125 466.734375 601.207031 C 465.230469 602.710938 457.574219 611.871094 461.464844 643.242188 C 464.101562 664.449219 473.136719 674.109375 479.160156 680.636719 C 481.917969 683.519531 484.050781 685.90625 484.554688 688.039062 C 486.4375 697.074219 478.40625 754.667969 476.023438 761.445312 C 474.265625 766.589844 465.480469 777.003906 456.445312 778.511719 C 455.945312 778.636719 455.441406 778.636719 454.941406 778.636719 C 453.8125 778.636719 451.929688 778.382812 451.425781 776.753906 C 450.675781 774.621094 452.179688 770.730469 457.199219 766.714844 C 463.722656 761.570312 469.621094 741.492188 471.253906 719.03125 C 472.757812 699.457031 455.316406 680.007812 440.007812 662.816406 C 434.613281 656.792969 429.46875 651.023438 425.578125 645.75 C 415.414062 631.949219 409.140625 602.460938 406.757812 581.378906 L 406.757812 581.128906 C 406.503906 579.246094 405.375 577.617188 403.746094 576.738281 C 402.113281 575.859375 400.105469 575.859375 398.347656 576.738281 C 395.210938 578.367188 383.292969 579.875 371.746094 580.625 C 371.996094 578.746094 372.375 576.863281 372.625 574.855469 C 373.628906 569.585938 374.632812 563.5625 375.136719 553.273438 C 375.261719 550.136719 372.875 547.375 369.613281 547.25 C 366.476562 547.125 363.714844 549.507812 363.589844 552.769531 C 363.214844 562.304688 362.210938 567.953125 361.332031 572.847656 C 360.453125 577.613281 359.699219 582.132812 359.574219 588.65625 C 358.320312 601.582031 352.171875 662.0625 347.402344 681.011719 C 344.015625 694.6875 341.507812 723.550781 339.371094 746.761719 C 338.117188 760.566406 336.988281 773.617188 336.234375 777.003906 C 334.355469 784.660156 330.464844 788.546875 320.925781 792.5625 C 318.167969 793.691406 315.03125 794.320312 312.019531 794.320312 C 308.128906 794.320312 305.996094 793.191406 305.367188 792.5625 C 305.117188 792.1875 305.242188 791.183594 305.492188 790.679688 C 307.375 784.660156 310.761719 780.519531 314.152344 776 C 316.285156 773.238281 318.542969 770.355469 320.425781 767.089844 C 324.816406 759.1875 326.699219 738.984375 327.703125 689.921875 C 328.457031 650.769531 316.160156 610.617188 315.03125 607.101562 C 309.382812 586.648438 309.507812 571.339844 309.507812 571.214844 C 309.507812 568.078125 307 565.445312 303.863281 565.316406 C 300.597656 565.316406 298.089844 567.828125 297.964844 570.964844 C 297.964844 571.59375 297.839844 583.511719 301.601562 600.953125 C 289.304688 597.816406 273.496094 592.546875 273.371094 592.421875 C 271.613281 591.792969 269.730469 592.171875 268.226562 593.175781 C 266.71875 594.304688 265.839844 595.933594 265.839844 597.816406 C 265.839844 606.097656 262.578125 639.101562 259.816406 668.085938 C 257.308594 693.808594 254.925781 718.027344 254.546875 727.691406 C 254.421875 730.703125 254.296875 733.714844 254.171875 736.726562 C 253.417969 753.539062 252.792969 770.855469 248.523438 777.632812 L 247.898438 778.636719 C 243.253906 786.164062 242.375 787.542969 223.179688 788.800781 C 222.550781 788.800781 221.921875 788.925781 221.296875 788.925781 C 220.039062 788.925781 216.027344 788.800781 215.398438 787.167969 C 214.144531 784.03125 217.90625 775.5 222.925781 770.605469 C 225.5625 768.09375 227.066406 767.46875 228.699219 766.839844 C 233.46875 764.832031 236.101562 762.574219 238.988281 754.292969 C 244.007812 739.609375 235.476562 605.847656 231.082031 569.710938 C 227.191406 538.089844 239.492188 491.910156 244.761719 472.210938 C 246.644531 465.433594 247.269531 462.925781 247.269531 461.546875 C 247.519531 459.789062 250.40625 452.636719 253.292969 445.734375 C 259.691406 429.925781 269.355469 406.082031 273.996094 385.628906 C 274.121094 385.253906 274.121094 385.003906 274.25 384.625 C 279.644531 391.402344 286.042969 394.664062 290.183594 396.042969 C 293.824219 397.300781 297.460938 397.925781 300.976562 397.925781 C 304.867188 397.925781 308.378906 397.175781 311.015625 395.542969 C 327.453125 388.390625 321.304688 365.175781 315.90625 344.472656 C 313.648438 335.8125 309.507812 319.878906 311.894531 317.367188 C 312.019531 317.242188 312.144531 317.242188 312.269531 317.117188 C 316.410156 314.859375 322.433594 313.730469 329.835938 313.730469 C 346.652344 313.730469 365.597656 319.625 374.382812 325.398438 C 384.042969 331.796875 387.054688 348.363281 388.4375 356.265625 C 388.9375 359.277344 389.3125 361.035156 389.816406 362.414062 C 390.945312 365.300781 394.207031 368.0625 411.273438 380.863281 C 417.671875 385.628906 426.832031 392.53125 430.347656 395.792969 C 428.214844 400.183594 420.308594 410.726562 409.769531 416.121094 C 407.761719 417.125 401.988281 418.882812 386.804688 418.882812 C 369.738281 418.882812 350.792969 416.625 348.53125 416.371094 C 336.488281 414.238281 327.703125 409.722656 325.195312 404.328125 C 323.8125 401.441406 320.425781 400.183594 317.539062 401.566406 C 314.652344 402.945312 313.398438 406.332031 314.777344 409.21875 C 319.546875 419.636719 332.21875 424.527344 341.757812 426.789062 C 341.882812 434.066406 344.265625 440.589844 348.785156 446.113281 C 363.589844 464.304688 398.222656 467.820312 423.445312 470.328125 C 426.082031 470.582031 428.589844 470.832031 430.972656 471.082031 C 459.710938 474.21875 492.207031 496.429688 515.800781 529.054688 C 531.984375 551.515625 546.164062 610.113281 554.574219 645.125 C 558.210938 660.433594 560.972656 671.601562 562.855469 676.492188 C 565.992188 684.398438 570.257812 689.292969 573.769531 693.183594 C 577.910156 697.824219 580.171875 700.335938 579.667969 706.234375 C 578.914062 716.523438 584.1875 738.105469 591.085938 765.335938 C 593.347656 774.242188 595.226562 781.898438 596.230469 786.539062 C 597.234375 790.554688 595.730469 793.566406 594.222656 795.324219 Z M 594.222656 795.324219 " fill-opacity="1" fill-rule="nonzero"/></g></svg>