<svg xmlns="http://www.w3.org/2000/svg" xmlns:xlink="http://www.w3.org/1999/xlink" width="1080" zoomAndPan="magnify" viewBox="0 0 810 809.999993" height="1080" preserveAspectRatio="xMidYMid meet" version="1.0"><path fill="#1c2e44" d="M 559.652344 598.128906 C 557.660156 598.121094 555.683594 598.273438 553.714844 598.585938 C 551.75 598.894531 549.820312 599.359375 547.925781 599.976562 C 546.03125 600.59375 544.199219 601.355469 542.429688 602.265625 C 540.660156 603.175781 538.972656 604.222656 537.367188 605.402344 C 535.761719 606.582031 534.261719 607.878906 532.863281 609.300781 C 531.46875 610.71875 530.191406 612.238281 529.039062 613.863281 C 527.882812 615.484375 526.867188 617.1875 525.984375 618.972656 C 525.101562 620.757812 524.367188 622.601562 523.78125 624.503906 L 513.492188 657.417969 C 514.359375 662.742188 514.847656 668.097656 514.953125 673.492188 C 515.058594 678.882812 514.785156 684.257812 514.125 689.609375 C 513.46875 694.960938 512.4375 700.242188 511.027344 705.449219 C 509.621094 710.65625 507.851562 715.734375 505.722656 720.691406 C 502.597656 727.957031 500.242188 735.464844 498.652344 743.214844 C 497.0625 750.960938 496.273438 758.792969 496.28125 766.703125 L 496.28125 767.15625 C 497.609375 767.5 498.898438 767.953125 500.152344 768.511719 C 501.40625 769.070312 502.605469 769.726562 503.75 770.480469 C 504.894531 771.234375 505.96875 772.082031 506.976562 773.011719 C 507.980469 773.945312 508.90625 774.953125 509.746094 776.039062 C 510.585938 777.121094 511.332031 778.269531 511.980469 779.476562 C 512.632812 780.683594 513.179688 781.9375 513.625 783.234375 C 514.070312 784.53125 514.40625 785.855469 514.632812 787.210938 C 514.859375 788.5625 514.972656 789.925781 514.976562 791.296875 L 514.976562 797.527344 C 514.976562 797.9375 514.933594 798.34375 514.855469 798.742188 C 514.777344 799.144531 514.65625 799.535156 514.5 799.910156 C 514.34375 800.289062 514.152344 800.648438 513.925781 800.988281 C 513.699219 801.328125 513.4375 801.644531 513.148438 801.933594 C 512.859375 802.222656 512.546875 802.480469 512.207031 802.707031 C 511.867188 802.9375 511.507812 803.128906 511.128906 803.285156 C 510.75 803.441406 510.359375 803.558594 509.960938 803.640625 C 509.558594 803.71875 509.152344 803.757812 508.742188 803.757812 L 490.050781 803.757812 C 490.050781 804.167969 490.011719 804.574219 489.929688 804.972656 C 489.851562 805.375 489.730469 805.765625 489.574219 806.144531 C 489.417969 806.519531 489.226562 806.878906 489 807.21875 C 488.773438 807.5625 488.515625 807.875 488.226562 808.164062 C 487.9375 808.453125 487.621094 808.710938 487.28125 808.941406 C 486.941406 809.167969 486.582031 809.359375 486.203125 809.515625 C 485.824219 809.671875 485.4375 809.789062 485.035156 809.871094 C 484.632812 809.949219 484.226562 809.988281 483.820312 809.988281 L 452.664062 809.988281 C 452.050781 809.988281 451.441406 809.960938 450.832031 809.898438 C 450.222656 809.839844 449.617188 809.75 449.015625 809.628906 C 448.414062 809.511719 447.824219 809.363281 447.238281 809.183594 C 446.652344 809.007812 446.074219 808.800781 445.507812 808.566406 C 444.945312 808.332031 444.390625 808.070312 443.851562 807.78125 C 443.3125 807.492188 442.785156 807.179688 442.277344 806.839844 C 441.769531 806.5 441.277344 806.136719 440.804688 805.746094 C 440.332031 805.359375 439.878906 804.949219 439.445312 804.515625 C 439.011719 804.082031 438.601562 803.628906 438.210938 803.15625 C 437.824219 802.683594 437.460938 802.191406 437.121094 801.683594 C 436.78125 801.171875 436.464844 800.648438 436.175781 800.109375 C 435.886719 799.570312 435.625 799.015625 435.390625 798.449219 C 435.15625 797.882812 434.953125 797.308594 434.773438 796.722656 C 434.597656 796.136719 434.449219 795.542969 434.328125 794.941406 C 434.210938 794.34375 434.121094 793.738281 434.058594 793.128906 C 434 792.519531 433.96875 791.910156 433.96875 791.296875 L 433.96875 716.183594 C 431.78125 716.296875 429.605469 716.523438 427.414062 716.523438 C 418.882812 716.527344 410.429688 715.6875 402.066406 714.011719 C 393.699219 712.332031 385.578125 709.847656 377.707031 706.550781 L 365.90625 701.636719 C 360.296875 699.292969 354.566406 697.242188 348.792969 695.402344 C 346.703125 699.875 344.320312 704.1875 341.640625 708.332031 C 338.960938 712.476562 336.011719 716.421875 332.792969 720.167969 C 329.574219 723.910156 326.117188 727.417969 322.417969 730.6875 C 318.71875 733.960938 314.816406 736.964844 310.710938 739.703125 C 309.539062 740.480469 308.480469 741.390625 307.535156 742.429688 C 306.589844 743.46875 305.785156 744.609375 305.125 745.851562 C 304.460938 747.089844 303.960938 748.390625 303.621094 749.753906 C 303.28125 751.117188 303.109375 752.503906 303.113281 753.910156 L 303.113281 767.15625 C 304.441406 767.5 305.730469 767.953125 306.984375 768.511719 C 308.238281 769.070312 309.4375 769.726562 310.582031 770.480469 C 311.726562 771.234375 312.804688 772.082031 313.808594 773.011719 C 314.816406 773.945312 315.738281 774.953125 316.578125 776.039062 C 317.417969 777.121094 318.164062 778.269531 318.8125 779.476562 C 319.464844 780.683594 320.011719 781.9375 320.457031 783.234375 C 320.902344 784.53125 321.238281 785.855469 321.464844 787.210938 C 321.691406 788.5625 321.804688 789.925781 321.808594 791.296875 L 321.808594 797.527344 C 321.808594 797.9375 321.769531 798.34375 321.6875 798.742188 C 321.609375 799.144531 321.488281 799.535156 321.332031 799.910156 C 321.175781 800.289062 320.984375 800.648438 320.757812 800.988281 C 320.53125 801.328125 320.273438 801.644531 319.984375 801.933594 C 319.691406 802.222656 319.378906 802.480469 319.039062 802.707031 C 318.699219 802.9375 318.339844 803.128906 317.960938 803.285156 C 317.582031 803.441406 317.191406 803.558594 316.792969 803.640625 C 316.390625 803.71875 315.984375 803.757812 315.578125 803.757812 L 284.421875 803.757812 C 282.113281 803.75 279.886719 803.328125 277.738281 802.488281 C 275.585938 801.652344 273.660156 800.453125 271.957031 798.898438 L 271.957031 803.757812 C 271.957031 804.167969 271.917969 804.574219 271.839844 804.972656 C 271.757812 805.375 271.640625 805.765625 271.484375 806.144531 C 271.328125 806.519531 271.136719 806.878906 270.90625 807.21875 C 270.679688 807.5625 270.421875 807.875 270.132812 808.164062 C 269.84375 808.453125 269.527344 808.710938 269.1875 808.941406 C 268.847656 809.167969 268.488281 809.359375 268.109375 809.515625 C 267.734375 809.671875 267.34375 809.789062 266.941406 809.871094 C 266.542969 809.949219 266.136719 809.988281 265.726562 809.988281 L 234.570312 809.988281 C 233.957031 809.988281 233.347656 809.960938 232.738281 809.898438 C 232.128906 809.839844 231.523438 809.75 230.921875 809.628906 C 230.324219 809.511719 229.730469 809.363281 229.144531 809.183594 C 228.558594 809.007812 227.984375 808.800781 227.417969 808.566406 C 226.851562 808.332031 226.296875 808.070312 225.757812 807.78125 C 225.21875 807.492188 224.695312 807.179688 224.183594 806.839844 C 223.675781 806.5 223.183594 806.136719 222.710938 805.746094 C 222.238281 805.359375 221.785156 804.949219 221.351562 804.515625 C 220.917969 804.082031 220.507812 803.628906 220.121094 803.15625 C 219.730469 802.683594 219.367188 802.191406 219.027344 801.683594 C 218.6875 801.171875 218.371094 800.648438 218.085938 800.109375 C 217.796875 799.570312 217.535156 799.015625 217.300781 798.449219 C 217.066406 797.882812 216.859375 797.308594 216.683594 796.722656 C 216.503906 796.136719 216.355469 795.542969 216.234375 794.941406 C 216.117188 794.34375 216.027344 793.738281 215.96875 793.128906 C 215.90625 792.519531 215.878906 791.910156 215.878906 791.296875 L 215.878906 747.679688 C 215.875 743.035156 216.496094 738.480469 217.734375 734.007812 C 218.972656 729.53125 220.785156 725.304688 223.171875 721.324219 L 229.050781 711.535156 C 230.855469 708.523438 232.226562 705.328125 233.164062 701.941406 C 234.101562 698.558594 234.570312 695.109375 234.570312 691.597656 L 234.570312 654.210938 C 234.574219 646.140625 236.097656 638.371094 239.136719 630.898438 L 228.960938 614.652344 C 227.683594 612.605469 226.492188 610.507812 225.386719 608.355469 C 224.28125 606.207031 223.269531 604.015625 222.351562 601.78125 C 221.433594 599.546875 220.609375 597.28125 219.878906 594.976562 C 219.152344 592.671875 218.519531 590.34375 217.988281 587.988281 C 217.453125 585.632812 217.019531 583.257812 216.6875 580.863281 C 216.355469 578.472656 216.121094 576.066406 215.988281 573.65625 C 215.859375 571.242188 215.828125 568.832031 215.898438 566.414062 C 215.972656 564 216.144531 561.59375 216.417969 559.191406 C 216.691406 556.792969 217.066406 554.40625 217.539062 552.039062 C 218.015625 549.671875 218.585938 547.324219 219.257812 545.003906 C 219.929688 542.683594 220.699219 540.394531 221.5625 538.140625 C 222.425781 535.882812 223.382812 533.667969 224.433594 531.492188 C 225.480469 529.316406 226.621094 527.1875 227.851562 525.109375 C 229.078125 523.027344 230.394531 521.003906 231.792969 519.035156 C 233.191406 517.0625 234.671875 515.15625 236.230469 513.3125 C 237.789062 511.464844 239.421875 509.691406 241.132812 507.980469 L 244.988281 504.125 C 245.441406 503.675781 245.910156 503.25 246.402344 502.84375 C 246.894531 502.441406 247.40625 502.0625 247.9375 501.707031 C 248.464844 501.355469 249.011719 501.027344 249.574219 500.730469 C 250.136719 500.429688 250.710938 500.15625 251.296875 499.914062 C 251.886719 499.671875 252.484375 499.457031 253.09375 499.273438 C 253.703125 499.085938 254.320312 498.933594 254.945312 498.808594 C 255.570312 498.683594 256.199219 498.59375 256.832031 498.53125 C 257.46875 498.46875 258.101562 498.4375 258.738281 498.4375 C 259.375 498.4375 260.011719 498.46875 260.644531 498.53125 C 261.277344 498.59375 261.90625 498.6875 262.53125 498.8125 C 263.15625 498.9375 263.773438 499.089844 264.382812 499.273438 C 264.992188 499.460938 265.589844 499.675781 266.179688 499.917969 C 266.765625 500.160156 267.339844 500.433594 267.902344 500.734375 C 268.464844 501.035156 269.011719 501.363281 269.539062 501.714844 C 270.070312 502.070312 270.578125 502.449219 271.070312 502.851562 C 271.5625 503.253906 272.035156 503.683594 272.484375 504.132812 C 272.9375 504.582031 273.363281 505.054688 273.765625 505.546875 C 274.171875 506.039062 274.550781 506.550781 274.902344 507.078125 C 275.257812 507.609375 275.585938 508.152344 275.882812 508.714844 C 276.183594 509.277344 276.457031 509.851562 276.699219 510.441406 C 276.945312 511.027344 277.160156 511.628906 277.34375 512.234375 C 277.527344 512.84375 277.683594 513.460938 277.808594 514.085938 C 277.933594 514.710938 278.023438 515.339844 278.085938 515.972656 C 278.148438 516.609375 278.183594 517.242188 278.183594 517.878906 C 278.183594 518.515625 278.152344 519.152344 278.089844 519.785156 C 278.027344 520.417969 277.933594 521.046875 277.808594 521.671875 C 277.6875 522.296875 277.53125 522.914062 277.347656 523.523438 C 277.164062 524.132812 276.949219 524.730469 276.703125 525.320312 C 276.460938 525.910156 276.191406 526.484375 275.890625 527.046875 C 275.589844 527.605469 275.261719 528.152344 274.910156 528.683594 C 274.554688 529.210938 274.179688 529.722656 273.773438 530.214844 C 273.371094 530.707031 272.945312 531.179688 272.492188 531.628906 L 266.34375 537.78125 C 265.417969 538.703125 264.535156 539.667969 263.695312 540.671875 C 262.855469 541.675781 262.058594 542.710938 261.308594 543.785156 C 260.5625 544.859375 259.859375 545.960938 259.207031 547.097656 C 258.554688 548.230469 257.953125 549.390625 257.40625 550.578125 C 256.855469 551.765625 256.355469 552.976562 255.914062 554.207031 C 255.46875 555.4375 255.082031 556.683594 254.746094 557.949219 C 254.410156 559.214844 254.132812 560.492188 253.910156 561.78125 C 253.6875 563.070312 253.523438 564.367188 253.417969 565.671875 C 253.308594 566.976562 253.257812 568.28125 253.265625 569.589844 C 253.269531 570.898438 253.335938 572.207031 253.457031 573.507812 C 253.578125 574.8125 253.757812 576.105469 253.992188 577.394531 C 254.226562 578.679688 254.519531 579.953125 254.867188 581.214844 C 255.214844 582.476562 255.617188 583.722656 256.070312 584.949219 C 256.527344 586.175781 257.039062 587.378906 257.601562 588.558594 C 258.164062 589.742188 258.777344 590.894531 259.441406 592.023438 C 260.105469 593.152344 260.816406 594.246094 261.578125 595.3125 L 265.316406 600.566406 C 270.09375 597.730469 275.160156 595.574219 280.515625 594.105469 C 285.871094 592.632812 291.328125 591.898438 296.882812 591.898438 L 334.789062 591.898438 L 407.542969 597.96875 C 409.59375 598.132812 411.648438 598.148438 413.699219 598.015625 C 415.753906 597.882812 417.789062 597.605469 419.800781 597.175781 C 421.816406 596.75 423.789062 596.183594 425.71875 595.472656 C 427.652344 594.761719 429.523438 593.914062 431.332031 592.933594 C 433.140625 591.953125 434.871094 590.847656 436.519531 589.613281 C 438.167969 588.382812 439.722656 587.039062 441.175781 585.585938 C 442.632812 584.128906 443.976562 582.578125 445.207031 580.929688 C 446.4375 579.277344 447.542969 577.550781 448.523438 575.738281 L 462.394531 549.972656 C 462.625 549.550781 462.90625 549.164062 463.144531 548.726562 C 462.171875 547.664062 461.355469 546.488281 460.695312 545.207031 C 460.035156 543.925781 459.554688 542.578125 459.253906 541.167969 C 458.953125 539.757812 458.839844 538.332031 458.917969 536.890625 C 458.996094 535.453125 459.257812 534.046875 459.710938 532.675781 C 460.164062 531.308594 460.785156 530.019531 461.578125 528.816406 C 462.375 527.613281 463.3125 526.535156 464.394531 525.578125 C 465.472656 524.625 466.660156 523.828125 467.953125 523.191406 C 469.246094 522.550781 470.601562 522.09375 472.015625 521.816406 L 493.964844 517.453125 C 495.097656 517.230469 496.246094 517.121094 497.402344 517.125 C 499.84375 517.125 502.179688 517.617188 504.414062 518.601562 C 508.703125 517.652344 513.042969 517.160156 517.4375 517.125 C 519.292969 517.121094 521.144531 517.226562 522.988281 517.441406 C 524.835938 517.652344 526.660156 517.96875 528.46875 518.394531 C 530.277344 518.820312 532.054688 519.347656 533.800781 519.976562 C 535.550781 520.605469 537.253906 521.335938 538.917969 522.160156 C 540.578125 522.988281 542.1875 523.910156 543.746094 524.925781 C 545.300781 525.9375 546.792969 527.039062 548.222656 528.222656 C 549.652344 529.410156 551.007812 530.675781 552.289062 532.019531 C 553.570312 533.363281 554.769531 534.777344 555.890625 536.257812 L 582.316406 540.035156 C 583.222656 540.164062 584.117188 540.347656 585 540.582031 C 585.882812 540.816406 586.75 541.105469 587.601562 541.441406 C 588.449219 541.78125 589.277344 542.167969 590.082031 542.601562 C 590.886719 543.039062 591.660156 543.519531 592.410156 544.046875 C 593.15625 544.574219 593.871094 545.144531 594.550781 545.757812 C 595.226562 546.371094 595.871094 547.019531 596.472656 547.707031 C 597.074219 548.394531 597.632812 549.117188 598.152344 549.871094 C 598.667969 550.625 599.140625 551.410156 599.5625 552.21875 C 599.988281 553.027344 600.363281 553.859375 600.691406 554.714844 C 601.015625 555.570312 601.289062 556.441406 601.511719 557.328125 C 601.734375 558.214844 601.90625 559.113281 602.023438 560.019531 C 602.136719 560.925781 602.199219 561.839844 602.210938 562.753906 C 602.21875 563.667969 602.171875 564.578125 602.074219 565.488281 C 601.972656 566.398438 601.820312 567.296875 601.613281 568.1875 C 601.410156 569.082031 601.152344 569.957031 600.839844 570.816406 C 600.53125 571.675781 600.171875 572.515625 599.761719 573.335938 C 598.84375 575.191406 597.796875 576.976562 596.628906 578.691406 C 595.457031 580.402344 594.175781 582.023438 592.777344 583.558594 C 591.382812 585.09375 589.886719 586.519531 588.292969 587.84375 C 586.695312 589.171875 585.015625 590.378906 583.253906 591.46875 C 581.488281 592.558594 579.660156 593.519531 577.761719 594.355469 C 575.863281 595.191406 573.914062 595.890625 571.921875 596.453125 C 569.925781 597.015625 567.898438 597.4375 565.84375 597.71875 C 563.789062 598 561.726562 598.136719 559.652344 598.128906 Z M 489.171875 791.296875 L 502.511719 791.296875 C 502.511719 790.476562 502.433594 789.667969 502.273438 788.863281 C 502.113281 788.0625 501.878906 787.28125 501.5625 786.527344 C 501.25 785.769531 500.867188 785.054688 500.414062 784.371094 C 499.957031 783.691406 499.441406 783.0625 498.863281 782.484375 C 498.285156 781.90625 497.652344 781.390625 496.972656 780.933594 C 496.292969 780.480469 495.574219 780.09375 494.820312 779.78125 C 494.0625 779.46875 493.285156 779.234375 492.480469 779.074219 C 491.679688 778.914062 490.867188 778.832031 490.050781 778.832031 C 489.640625 778.832031 489.234375 778.792969 488.835938 778.714844 C 488.433594 778.632812 488.042969 778.515625 487.664062 778.359375 C 487.289062 778.203125 486.929688 778.011719 486.589844 777.785156 C 486.25 777.554688 485.933594 777.296875 485.644531 777.007812 C 485.355469 776.71875 485.097656 776.40625 484.867188 776.066406 C 484.640625 775.722656 484.449219 775.363281 484.292969 774.988281 C 484.136719 774.609375 484.019531 774.21875 483.9375 773.816406 C 483.859375 773.417969 483.820312 773.011719 483.820312 772.601562 L 483.820312 766.703125 C 483.808594 757.949219 484.683594 749.28125 486.441406 740.707031 C 488.203125 732.132812 490.8125 723.824219 494.269531 715.78125 C 498.28125 706.421875 500.820312 696.675781 501.890625 686.550781 C 498.226562 691.949219 493.734375 696.539062 488.417969 700.320312 C 486.960938 709.488281 484.421875 718.347656 480.796875 726.898438 C 477.671875 734.167969 475.316406 741.679688 473.726562 749.433594 C 472.136719 757.183594 471.347656 765.019531 471.355469 772.933594 L 471.355469 773.386719 C 472.425781 773.667969 473.46875 774.019531 474.492188 774.441406 C 475.515625 774.859375 476.503906 775.347656 477.460938 775.898438 C 478.417969 776.449219 479.335938 777.0625 480.210938 777.738281 C 481.089844 778.410156 481.917969 779.140625 482.695312 779.921875 C 483.476562 780.707031 484.199219 781.539062 484.867188 782.417969 C 485.539062 783.296875 486.144531 784.21875 486.691406 785.179688 C 487.238281 786.136719 487.71875 787.128906 488.136719 788.15625 C 488.550781 789.179688 488.894531 790.226562 489.171875 791.296875 Z M 278.1875 785.066406 C 278.1875 785.472656 278.230469 785.878906 278.308594 786.28125 C 278.390625 786.683594 278.507812 787.070312 278.664062 787.449219 C 278.820312 787.828125 279.011719 788.1875 279.238281 788.527344 C 279.464844 788.867188 279.726562 789.183594 280.015625 789.472656 C 280.304688 789.761719 280.617188 790.019531 280.957031 790.246094 C 281.296875 790.472656 281.65625 790.664062 282.035156 790.820312 C 282.414062 790.976562 282.804688 791.097656 283.203125 791.175781 C 283.605469 791.257812 284.011719 791.296875 284.421875 791.296875 L 309.34375 791.296875 C 309.34375 790.476562 309.265625 789.667969 309.105469 788.863281 C 308.945312 788.0625 308.710938 787.28125 308.398438 786.527344 C 308.082031 785.769531 307.699219 785.054688 307.246094 784.371094 C 306.789062 783.691406 306.273438 783.0625 305.695312 782.484375 C 305.117188 781.90625 304.488281 781.390625 303.804688 780.933594 C 303.125 780.480469 302.40625 780.09375 301.652344 779.78125 C 300.894531 779.46875 300.117188 779.234375 299.3125 779.074219 C 298.511719 778.914062 297.699219 778.832031 296.882812 778.832031 C 296.472656 778.832031 296.070312 778.792969 295.667969 778.714844 C 295.265625 778.632812 294.875 778.515625 294.5 778.359375 C 294.121094 778.203125 293.761719 778.011719 293.421875 777.785156 C 293.082031 777.554688 292.765625 777.296875 292.476562 777.007812 C 292.1875 776.71875 291.929688 776.40625 291.703125 776.066406 C 291.472656 775.722656 291.28125 775.363281 291.125 774.988281 C 290.96875 774.609375 290.851562 774.21875 290.769531 773.816406 C 290.691406 773.417969 290.652344 773.011719 290.652344 772.601562 L 290.652344 753.910156 C 290.648438 751.480469 290.941406 749.085938 291.53125 746.726562 C 292.121094 744.371094 292.988281 742.121094 294.136719 739.980469 C 295.28125 737.835938 296.671875 735.867188 298.308594 734.066406 C 299.941406 732.269531 301.769531 730.699219 303.792969 729.351562 C 310.816406 724.679688 317.113281 719.179688 322.6875 712.847656 C 328.261719 706.519531 332.921875 699.574219 336.664062 692.015625 C 326.175781 689.359375 315.546875 687.515625 304.777344 686.488281 C 302.390625 694.515625 299.117188 702.160156 294.957031 709.429688 C 290.796875 716.699219 285.863281 723.394531 280.152344 729.519531 C 278.867188 733.390625 278.210938 737.367188 278.1875 741.445312 Z M 265.726562 781.171875 L 265.726562 742.480469 C 264.136719 743.671875 262.523438 744.84375 260.859375 745.953125 C 259.691406 746.730469 258.632812 747.636719 257.691406 748.675781 C 256.746094 749.714844 255.941406 750.851562 255.277344 752.089844 C 254.617188 753.328125 254.113281 754.628906 253.773438 755.992188 C 253.433594 757.351562 253.261719 758.734375 253.265625 760.140625 L 253.265625 773.386719 C 255.683594 774.03125 257.957031 775.011719 260.082031 776.339844 C 262.207031 777.667969 264.085938 779.277344 265.726562 781.171875 Z M 251.4375 602.558594 C 250.464844 601.195312 249.554688 599.796875 248.707031 598.351562 C 247.855469 596.910156 247.070312 595.433594 246.351562 593.921875 C 245.632812 592.410156 244.980469 590.871094 244.394531 589.304688 C 243.8125 587.734375 243.296875 586.144531 242.851562 584.53125 C 242.410156 582.917969 242.035156 581.285156 241.734375 579.640625 C 241.433594 577.992188 241.207031 576.335938 241.050781 574.671875 C 240.894531 573.003906 240.8125 571.332031 240.804688 569.660156 C 240.792969 567.984375 240.859375 566.316406 240.996094 564.648438 C 241.136719 562.980469 241.347656 561.320312 241.628906 559.671875 C 241.914062 558.019531 242.269531 556.386719 242.699219 554.769531 C 243.125 553.152344 243.625 551.554688 244.191406 549.980469 C 244.757812 548.40625 245.394531 546.859375 246.097656 545.339844 C 246.800781 543.820312 247.570312 542.335938 248.40625 540.886719 C 249.238281 539.433594 250.136719 538.023438 251.09375 536.652344 C 252.054688 535.277344 253.070312 533.953125 254.144531 532.667969 C 255.21875 531.386719 256.347656 530.152344 257.53125 528.96875 L 263.683594 522.820312 C 264.007812 522.492188 264.296875 522.140625 264.550781 521.757812 C 264.808594 521.378906 265.023438 520.976562 265.199219 520.550781 C 265.375 520.128906 265.503906 519.691406 265.59375 519.242188 C 265.683594 518.789062 265.730469 518.335938 265.730469 517.878906 C 265.730469 517.417969 265.683594 516.964844 265.59375 516.515625 C 265.503906 516.0625 265.375 515.625 265.199219 515.203125 C 265.023438 514.777344 264.808594 514.375 264.550781 513.996094 C 264.296875 513.613281 264.007812 513.261719 263.683594 512.9375 C 263.359375 512.613281 263.003906 512.320312 262.625 512.066406 C 262.242188 511.8125 261.839844 511.597656 261.414062 511.421875 C 260.992188 511.246094 260.554688 511.113281 260.105469 511.023438 C 259.65625 510.933594 259.199219 510.890625 258.742188 510.890625 C 258.28125 510.890625 257.828125 510.933594 257.378906 511.023438 C 256.929688 511.113281 256.492188 511.246094 256.066406 511.421875 C 255.644531 511.597656 255.242188 511.8125 254.859375 512.066406 C 254.476562 512.320312 254.125 512.613281 253.800781 512.9375 L 249.941406 516.792969 C 248.480469 518.253906 247.085938 519.773438 245.75 521.355469 C 244.417969 522.933594 243.152344 524.566406 241.957031 526.25 C 240.757812 527.933594 239.636719 529.667969 238.585938 531.449219 C 237.535156 533.226562 236.558594 535.046875 235.664062 536.910156 C 234.765625 538.769531 233.945312 540.667969 233.207031 542.597656 C 232.46875 544.527344 231.8125 546.484375 231.238281 548.472656 C 230.667969 550.457031 230.175781 552.464844 229.773438 554.488281 C 229.367188 556.515625 229.046875 558.558594 228.8125 560.609375 C 228.578125 562.664062 228.433594 564.722656 228.371094 566.789062 C 228.3125 568.855469 228.335938 570.921875 228.449219 572.984375 C 228.5625 575.046875 228.761719 577.101562 229.046875 579.148438 C 229.332031 581.195312 229.703125 583.226562 230.160156 585.242188 C 230.617188 587.257812 231.15625 589.253906 231.78125 591.222656 C 232.40625 593.191406 233.109375 595.132812 233.898438 597.046875 C 234.683594 598.957031 235.550781 600.832031 236.496094 602.667969 C 237.441406 604.507812 238.460938 606.300781 239.554688 608.054688 L 246 618.363281 C 248.707031 614.542969 251.804688 611.070312 255.289062 607.941406 Z M 497.402344 529.585938 C 497.066406 529.585938 496.734375 529.617188 496.40625 529.683594 L 474.472656 534.046875 C 473.773438 534.1875 473.15625 534.496094 472.628906 534.976562 C 472.101562 535.453125 471.730469 536.035156 471.523438 536.71875 C 471.316406 537.402344 471.300781 538.089844 471.472656 538.78125 C 471.648438 539.472656 471.984375 540.074219 472.492188 540.578125 L 498.105469 566.195312 C 498.488281 566.519531 498.925781 566.71875 499.421875 566.800781 C 499.914062 566.878906 500.394531 566.824219 500.859375 566.632812 C 501.320312 566.445312 501.703125 566.148438 502 565.746094 C 502.296875 565.34375 502.46875 564.890625 502.511719 564.394531 L 502.511719 534.695312 C 502.511719 534.359375 502.480469 534.027344 502.414062 533.699219 C 502.347656 533.371094 502.25 533.050781 502.121094 532.742188 C 501.992188 532.429688 501.835938 532.136719 501.648438 531.859375 C 501.464844 531.578125 501.25 531.320312 501.015625 531.085938 C 500.777344 530.847656 500.519531 530.636719 500.238281 530.449219 C 499.960938 530.261719 499.667969 530.105469 499.355469 529.976562 C 499.046875 529.847656 498.726562 529.75 498.398438 529.683594 C 498.070312 529.617188 497.738281 529.585938 497.402344 529.585938 Z M 580.550781 552.367188 L 551.476562 548.21875 C 550.601562 548.089844 549.789062 547.792969 549.039062 547.320312 C 548.289062 546.847656 547.667969 546.242188 547.179688 545.507812 C 546.367188 544.285156 545.484375 543.121094 544.527344 542.007812 C 543.570312 540.894531 542.550781 539.847656 541.46875 538.859375 C 540.382812 537.875 539.242188 536.957031 538.042969 536.113281 C 536.847656 535.269531 535.601562 534.5 534.308594 533.808594 C 533.015625 533.117188 531.6875 532.503906 530.316406 531.976562 C 528.949219 531.449219 527.554688 531.007812 526.132812 530.652344 C 524.710938 530.296875 523.273438 530.03125 521.816406 529.851562 C 520.363281 529.671875 518.902344 529.585938 517.4375 529.585938 C 516.347656 529.585938 515.273438 529.714844 514.191406 529.792969 C 514.6875 531.386719 514.949219 533.023438 514.976562 534.695312 L 514.976562 564.394531 C 514.976562 565.132812 514.921875 565.867188 514.8125 566.601562 C 514.703125 567.332031 514.542969 568.050781 514.328125 568.757812 C 514.113281 569.46875 513.847656 570.15625 513.53125 570.824219 C 513.214844 571.492188 512.851562 572.136719 512.441406 572.75 C 512.027344 573.367188 511.574219 573.945312 511.078125 574.496094 C 510.582031 575.042969 510.046875 575.550781 509.476562 576.019531 C 508.902344 576.492188 508.300781 576.914062 507.667969 577.296875 C 507.03125 577.675781 506.371094 578.007812 505.6875 578.289062 C 505.003906 578.574219 504.304688 578.804688 503.585938 578.984375 C 502.871094 579.164062 502.144531 579.289062 501.40625 579.363281 C 500.671875 579.4375 499.933594 579.453125 499.195312 579.417969 C 498.457031 579.382812 497.722656 579.292969 497 579.148438 C 496.273438 579.003906 495.5625 578.804688 494.863281 578.554688 C 494.167969 578.308594 493.492188 578.007812 492.839844 577.660156 C 492.1875 577.3125 491.566406 576.917969 490.972656 576.476562 C 490.378906 576.035156 489.820312 575.554688 489.296875 575.03125 L 472.246094 557.980469 L 459.5 581.660156 C 458.230469 584 456.800781 586.234375 455.210938 588.367188 C 453.617188 590.496094 451.882812 592.503906 450.003906 594.386719 C 448.121094 596.265625 446.113281 598.003906 443.984375 599.59375 C 441.851562 601.1875 439.617188 602.617188 437.277344 603.886719 C 434.941406 605.152344 432.523438 606.246094 430.027344 607.167969 C 427.53125 608.085938 424.980469 608.824219 422.378906 609.375 C 419.777344 609.925781 417.148438 610.285156 414.492188 610.457031 C 411.839844 610.628906 409.183594 610.609375 406.535156 610.398438 L 334.269531 604.359375 L 296.882812 604.359375 C 295.25 604.363281 293.621094 604.445312 292 604.605469 C 290.375 604.765625 288.761719 605.007812 287.160156 605.328125 C 285.5625 605.648438 283.980469 606.042969 282.417969 606.519531 C 280.855469 606.992188 279.324219 607.542969 277.816406 608.167969 C 276.308594 608.796875 274.835938 609.492188 273.394531 610.261719 C 271.957031 611.03125 270.558594 611.871094 269.199219 612.777344 C 267.84375 613.6875 266.535156 614.65625 265.273438 615.691406 C 264.011719 616.726562 262.804688 617.824219 261.648438 618.976562 C 260.496094 620.132812 259.402344 621.339844 258.367188 622.601562 C 257.328125 623.863281 256.359375 625.171875 255.453125 626.527344 C 254.542969 627.886719 253.707031 629.28125 252.9375 630.722656 C 252.164062 632.160156 251.46875 633.632812 250.84375 635.140625 C 250.21875 636.648438 249.667969 638.183594 249.191406 639.746094 C 248.71875 641.308594 248.320312 642.886719 248 644.488281 C 247.679688 646.089844 247.441406 647.703125 247.277344 649.324219 C 247.117188 650.949219 247.035156 652.578125 247.03125 654.210938 L 247.03125 691.597656 C 247.035156 696.238281 246.414062 700.796875 245.175781 705.269531 C 243.9375 709.742188 242.125 713.96875 239.734375 717.949219 L 233.859375 727.738281 C 232.054688 730.75 230.683594 733.949219 229.746094 737.332031 C 228.808594 740.71875 228.339844 744.164062 228.339844 747.679688 L 228.339844 791.296875 C 228.339844 791.707031 228.378906 792.109375 228.460938 792.511719 C 228.539062 792.914062 228.65625 793.304688 228.8125 793.679688 C 228.96875 794.058594 229.164062 794.417969 229.390625 794.757812 C 229.617188 795.097656 229.875 795.414062 230.164062 795.703125 C 230.453125 795.992188 230.769531 796.25 231.109375 796.476562 C 231.449219 796.703125 231.808594 796.898438 232.1875 797.054688 C 232.5625 797.210938 232.953125 797.328125 233.355469 797.40625 C 233.757812 797.488281 234.160156 797.527344 234.570312 797.527344 L 259.496094 797.527344 C 259.496094 796.710938 259.414062 795.898438 259.257812 795.097656 C 259.097656 794.292969 258.859375 793.515625 258.546875 792.757812 C 258.234375 792.003906 257.851562 791.285156 257.394531 790.605469 C 256.941406 789.921875 256.425781 789.292969 255.84375 788.714844 C 255.265625 788.136719 254.636719 787.621094 253.957031 787.164062 C 253.277344 786.710938 252.558594 786.328125 251.800781 786.015625 C 251.046875 785.699219 250.265625 785.464844 249.464844 785.304688 C 248.660156 785.144531 247.851562 785.066406 247.03125 785.066406 C 246.625 785.066406 246.21875 785.023438 245.816406 784.945312 C 245.417969 784.867188 245.027344 784.746094 244.648438 784.589844 C 244.269531 784.433594 243.910156 784.242188 243.570312 784.015625 C 243.230469 783.789062 242.917969 783.527344 242.628906 783.238281 C 242.335938 782.949219 242.078125 782.636719 241.851562 782.296875 C 241.625 781.957031 241.433594 781.597656 241.277344 781.21875 C 241.121094 780.839844 241 780.449219 240.921875 780.050781 C 240.84375 779.648438 240.800781 779.242188 240.800781 778.832031 L 240.800781 760.140625 C 240.800781 757.710938 241.09375 755.316406 241.683594 752.960938 C 242.273438 750.601562 243.140625 748.351562 244.285156 746.210938 C 245.433594 744.066406 246.824219 742.097656 248.457031 740.300781 C 250.089844 738.5 251.921875 736.929688 253.945312 735.582031 C 257.234375 733.394531 260.382812 731.007812 263.378906 728.433594 C 266.378906 725.855469 269.207031 723.101562 271.867188 720.175781 C 274.527344 717.25 276.996094 714.171875 279.277344 710.941406 C 281.554688 707.710938 283.628906 704.351562 285.496094 700.867188 C 287.359375 697.378906 289.003906 693.792969 290.429688 690.101562 C 291.851562 686.414062 293.042969 682.652344 294.003906 678.816406 C 294.964844 674.980469 295.683594 671.097656 296.167969 667.175781 C 296.648438 663.25 296.886719 659.308594 296.882812 655.355469 L 296.882812 641.746094 L 309.34375 641.746094 L 309.34375 655.355469 C 309.335938 661.667969 308.78125 667.929688 307.6875 674.144531 C 329.476562 676.398438 350.476562 681.738281 370.699219 690.164062 L 382.5 695.082031 C 390.515625 698.417969 398.804688 700.832031 407.359375 702.316406 C 415.914062 703.800781 424.53125 704.324219 433.203125 703.886719 C 432.460938 698.960938 431.191406 694.179688 429.398438 689.535156 C 427.601562 684.894531 425.320312 680.5 422.554688 676.363281 L 432.921875 669.445312 C 435.117188 672.726562 437.054688 676.15625 438.742188 679.726562 C 440.429688 683.296875 441.847656 686.96875 442.992188 690.75 C 444.136719 694.527344 444.996094 698.371094 445.570312 702.277344 C 446.148438 706.183594 446.433594 710.113281 446.433594 714.058594 L 446.433594 791.296875 C 446.433594 791.707031 446.472656 792.109375 446.550781 792.511719 C 446.632812 792.914062 446.75 793.304688 446.90625 793.679688 C 447.0625 794.058594 447.253906 794.417969 447.480469 794.757812 C 447.710938 795.097656 447.96875 795.414062 448.257812 795.703125 C 448.546875 795.992188 448.859375 796.25 449.199219 796.476562 C 449.542969 796.703125 449.898438 796.898438 450.277344 797.054688 C 450.65625 797.210938 451.046875 797.328125 451.445312 797.40625 C 451.847656 797.488281 452.253906 797.527344 452.664062 797.527344 L 477.585938 797.527344 C 477.585938 796.710938 477.507812 795.898438 477.347656 795.097656 C 477.1875 794.292969 476.953125 793.515625 476.640625 792.757812 C 476.324219 792.003906 475.941406 791.285156 475.488281 790.605469 C 475.03125 789.921875 474.515625 789.292969 473.9375 788.714844 C 473.359375 788.136719 472.730469 787.621094 472.050781 787.164062 C 471.367188 786.710938 470.652344 786.328125 469.894531 786.015625 C 469.136719 785.699219 468.359375 785.464844 467.554688 785.304688 C 466.753906 785.144531 465.945312 785.066406 465.125 785.066406 C 464.714844 785.066406 464.3125 785.023438 463.910156 784.945312 C 463.507812 784.867188 463.117188 784.746094 462.742188 784.589844 C 462.363281 784.433594 462.003906 784.242188 461.664062 784.015625 C 461.324219 783.789062 461.007812 783.527344 460.71875 783.238281 C 460.429688 782.949219 460.171875 782.636719 459.945312 782.296875 C 459.71875 781.957031 459.523438 781.597656 459.367188 781.21875 C 459.210938 780.839844 459.09375 780.449219 459.015625 780.050781 C 458.933594 779.648438 458.894531 779.242188 458.894531 778.832031 L 458.894531 772.933594 C 458.882812 764.179688 459.757812 755.515625 461.519531 746.9375 C 463.277344 738.363281 465.886719 730.054688 469.34375 722.011719 C 472.070312 715.667969 474.128906 709.117188 475.515625 702.355469 C 476.90625 695.59375 477.597656 688.761719 477.585938 681.859375 L 477.585938 660.441406 L 490.050781 660.441406 L 490.050781 681.71875 C 493.140625 677.742188 495.445312 673.347656 496.953125 668.542969 L 511.859375 620.785156 C 512.25 619.519531 512.691406 618.273438 513.183594 617.042969 C 513.671875 615.8125 514.210938 614.605469 514.796875 613.417969 C 515.386719 612.230469 516.019531 611.070312 516.699219 609.933594 C 517.378906 608.796875 518.101562 607.691406 518.867188 606.609375 C 519.636719 605.53125 520.445312 604.484375 521.296875 603.472656 C 522.148438 602.457031 523.039062 601.480469 523.96875 600.535156 C 524.898438 599.59375 525.863281 598.6875 526.863281 597.820312 C 527.863281 596.953125 528.898438 596.128906 529.964844 595.34375 C 531.03125 594.5625 532.128906 593.820312 533.253906 593.125 C 534.378906 592.425781 535.53125 591.777344 536.710938 591.171875 C 537.886719 590.566406 539.085938 590.011719 540.308594 589.5 C 541.53125 588.992188 542.773438 588.53125 544.03125 588.121094 C 545.289062 587.710938 546.5625 587.351562 547.851562 587.042969 C 549.136719 586.734375 550.4375 586.476562 551.742188 586.269531 C 553.050781 586.066406 554.367188 585.910156 555.6875 585.8125 C 557.007812 585.710938 558.328125 585.660156 559.652344 585.667969 C 563.074219 585.664062 566.410156 585.132812 569.660156 584.066406 C 572.914062 583 575.917969 581.457031 578.675781 579.433594 L 552.363281 579.433594 L 552.363281 566.972656 L 588.90625 566.972656 C 589.066406 566.597656 589.203125 566.21875 589.320312 565.828125 C 589.433594 565.4375 589.527344 565.042969 589.59375 564.644531 C 589.664062 564.242188 589.710938 563.839844 589.734375 563.4375 C 589.757812 563.03125 589.753906 562.625 589.730469 562.21875 C 589.707031 561.8125 589.660156 561.410156 589.589844 561.011719 C 589.519531 560.613281 589.425781 560.21875 589.3125 559.828125 C 589.195312 559.4375 589.058594 559.058594 588.898438 558.683594 C 588.738281 558.3125 588.558594 557.949219 588.355469 557.59375 C 588.15625 557.242188 587.933594 556.902344 587.691406 556.578125 C 587.453125 556.25 587.191406 555.9375 586.914062 555.640625 C 586.640625 555.34375 586.347656 555.0625 586.035156 554.800781 C 585.726562 554.535156 585.40625 554.292969 585.066406 554.066406 C 584.730469 553.839844 584.378906 553.632812 584.019531 553.449219 C 583.660156 553.261719 583.289062 553.097656 582.90625 552.957031 C 582.527344 552.8125 582.140625 552.691406 581.746094 552.59375 C 581.351562 552.496094 580.953125 552.417969 580.550781 552.367188 Z M 580.550781 552.367188 " fill-opacity="1" fill-rule="nonzero"/></svg>