<svg width="107" height="93" viewBox="0 0 107 93" fill="none" xmlns="http://www.w3.org/2000/svg">
<path fill-rule="evenodd" clip-rule="evenodd" d="M85.6509 3.39199C84.7551 3.00354 83.824 2.67645 82.8575 2.41067C81.8909 2.12444 80.9127 1.8791 79.9226 1.67466C78.9089 1.49066 77.8717 1.34756 76.8109 1.24533C75.7737 1.12267 74.7129 1.05111 73.6285 1.03066C72.5441 0.989777 71.4362 0.989777 70.3046 1.03066C69.1967 1.07155 68.0652 1.15332 66.9101 1.27599C65.7786 1.39865 64.6235 1.55199 63.4448 1.73598C62.2897 1.91999 61.1228 2.13467 59.9441 2.38C58.7655 2.62534 57.5868 2.90134 56.4081 3.208C55.2059 3.49422 54.0154 3.82133 52.8368 4.18933C51.6345 4.55733 50.4441 4.94578 49.2654 5.35467C48.0867 5.76356 46.9081 6.19288 45.7294 6.64266C44.5507 7.09244 43.3838 7.57288 42.2288 8.08399C41.0501 8.57466 39.895 9.096 38.7635 9.648C37.6319 10.1796 36.5004 10.7316 35.3689 11.304C34.261 11.8764 33.1648 12.4591 32.0804 13.052C30.996 13.6653 29.9235 14.2889 28.8627 14.9227C27.8254 15.5564 26.8 16.2004 25.7863 16.8547C24.7962 17.5089 23.8179 18.1733 22.8514 18.848C21.8849 19.5227 20.942 20.2178 20.0226 20.9333C19.1033 21.6284 18.2075 22.344 17.3353 23.08C16.4631 23.7955 15.6262 24.5315 14.8247 25.288C13.9996 26.0444 13.2099 26.8009 12.4556 27.5573C11.7012 28.3138 10.9705 29.0907 10.2633 29.888C9.55606 30.6649 8.88422 31.452 8.24773 32.2493C7.61125 33.0671 7.01013 33.8747 6.44437 34.672C5.87861 35.4898 5.34821 36.3178 4.85317 37.156C4.33455 37.9942 3.86309 38.8324 3.43877 39.6707C3.01445 40.5089 2.62548 41.3573 2.27188 42.216C1.91828 43.0747 1.61183 43.9333 1.35252 44.792C1.06964 45.6507 0.833908 46.5196 0.645321 47.3987C0.456734 48.2778 0.303507 49.1569 0.18564 50.036C0.0913468 50.9151 0.0324134 51.7942 0.00884002 52.6733C-0.0147334 53.5729 0.00884001 54.4622 0.0795601 55.3413C0.15028 56.2204 0.268147 57.1098 0.433161 58.0093C0.598174 58.8884 0.798548 59.7676 1.03428 60.6467C1.27002 61.5462 1.54111 62.4253 1.84756 63.284C2.15402 64.1631 2.49583 65.032 2.873 65.8907C3.25018 66.7493 3.6745 67.5978 4.14597 68.436C4.59386 69.2742 5.07712 70.1022 5.59573 70.92C6.09077 71.7378 6.63296 72.5453 7.22229 73.3427C7.78805 74.14 8.38917 74.9169 9.02565 75.6733C9.66214 76.4298 10.3222 77.176 11.0058 77.912C11.6894 78.6276 12.3966 79.3329 13.1274 80.028C13.8818 80.7027 14.6479 81.3671 15.4258 82.0213C16.2037 82.6551 17.0052 83.2684 17.8303 83.8613C18.6554 84.4542 19.4922 85.0267 20.3409 85.5787C21.2131 86.1307 22.0971 86.652 22.9929 87.1427C23.8651 87.6129 24.7727 88.0627 25.7156 88.492C26.635 88.9213 27.5661 89.32 28.509 89.688C29.452 90.056 30.4185 90.3933 31.4086 90.7C32.3751 91.0067 33.3534 91.2724 34.3435 91.4973C35.3335 91.7427 36.3354 91.9573 37.3491 92.1413C38.3391 92.3253 39.3528 92.4787 40.39 92.6013C41.4037 92.724 42.4291 92.816 43.4664 92.8773C44.48 92.9387 45.5055 92.9796 46.5427 93C47.5799 93 48.6171 92.9796 49.6544 92.9387C50.6916 92.8978 51.7406 92.8364 52.8014 92.7547C53.8386 92.6524 54.8641 92.5298 55.8777 92.3867C56.915 92.2436 57.9522 92.0698 58.9894 91.8653C60.0031 91.6813 61.0285 91.4667 62.0657 91.2213C63.0794 90.976 64.0813 90.7102 65.0714 90.424C66.085 90.1173 67.0869 89.8004 68.077 89.4733C69.0435 89.1462 70.01 88.7884 70.9765 88.4C71.943 88.032 72.8977 87.6333 73.8406 87.204C74.7836 86.7951 75.7147 86.3556 76.6341 85.8853C77.5299 85.4356 78.4257 84.9551 79.3215 84.444C80.1937 83.9533 81.0541 83.4422 81.9027 82.9107C82.775 82.3791 83.6118 81.8169 84.4133 81.224C85.2384 80.6516 86.0399 80.0689 86.8178 79.476C87.5957 78.8627 88.3618 78.2289 89.1162 77.5747C89.847 76.9204 90.5659 76.256 91.2731 75.5813C91.9804 74.9067 92.664 74.2116 93.324 73.496C93.9841 72.7804 94.6206 72.0444 95.2335 71.288C95.8464 70.552 96.4357 69.7853 97.0015 68.988C97.5908 68.2111 98.1448 67.424 98.6634 66.6267C99.182 65.8089 99.6771 64.9809 100.149 64.1427C100.62 63.284 101.068 62.4253 101.492 61.5667C101.917 60.6876 102.305 59.7982 102.659 58.8987C103.036 57.9991 103.378 57.0791 103.685 56.1387C103.991 55.2187 104.274 54.2782 104.533 53.3173C104.769 52.3564 104.993 51.3853 105.205 50.404C105.394 49.4227 105.547 48.4311 105.665 47.4293C105.806 46.4071 105.912 45.3849 105.983 44.3627C106.054 43.3404 106.089 42.308 106.089 41.2653C106.089 40.2227 106.065 39.18 106.018 38.1373C105.948 37.0742 105.853 36.0213 105.735 34.9787C105.618 33.936 105.476 32.8933 105.311 31.8507C105.123 30.808 104.91 29.7756 104.675 28.7533C104.439 27.7311 104.168 26.7191 103.861 25.7173C103.555 24.7156 103.225 23.7342 102.871 22.7733C102.494 21.8124 102.093 20.8618 101.669 19.9213C101.245 18.9809 100.785 18.0711 100.29 17.192C99.8185 16.3129 99.3117 15.4542 98.7695 14.616C98.2037 13.7778 97.6262 12.9702 97.0368 12.1933C96.4239 11.4164 95.7874 10.6702 95.1274 9.95466C94.4438 9.25955 93.7366 8.59512 93.0058 7.96133C92.2986 7.32756 91.5443 6.72444 90.7428 6.15199C89.9648 5.6 89.1516 5.09911 88.3029 4.64932C87.4543 4.1791 86.5703 3.75999 85.6509 3.39199Z" fill="#F6ABAD"/>
<path d="M44.224 43.424C44.288 41.712 44.848 40.392 45.904 39.464C46.96 38.536 48.392 38.072 50.2 38.072C51.4 38.072 52.424 38.28 53.272 38.696C54.136 39.112 54.784 39.68 55.216 40.4C55.664 41.12 55.888 41.928 55.888 42.824C55.888 43.88 55.624 44.744 55.096 45.416C54.568 46.072 53.952 46.52 53.248 46.76V46.856C54.16 47.16 54.88 47.664 55.408 48.368C55.936 49.072 56.2 49.976 56.2 51.08C56.2 52.072 55.968 52.952 55.504 53.72C55.056 54.472 54.392 55.064 53.512 55.496C52.648 55.928 51.616 56.144 50.416 56.144C48.496 56.144 46.96 55.672 45.808 54.728C44.672 53.784 44.072 52.36 44.008 50.456H47.992C48.008 51.16 48.208 51.72 48.592 52.136C48.976 52.536 49.536 52.736 50.272 52.736C50.896 52.736 51.376 52.56 51.712 52.208C52.064 51.84 52.24 51.36 52.24 50.768C52.24 50 51.992 49.448 51.496 49.112C51.016 48.76 50.24 48.584 49.168 48.584H48.4V45.248H49.168C49.984 45.248 50.64 45.112 51.136 44.84C51.648 44.552 51.904 44.048 51.904 43.328C51.904 42.752 51.744 42.304 51.424 41.984C51.104 41.664 50.664 41.504 50.104 41.504C49.496 41.504 49.04 41.688 48.736 42.056C48.448 42.424 48.28 42.88 48.232 43.424H44.224Z" fill="#1C2E44"/>
</svg>
