<svg width="107" height="93" viewBox="0 0 107 93" fill="none" xmlns="http://www.w3.org/2000/svg">
<g clip-path="url(#clip0_537_2808)">
<path fill-rule="evenodd" clip-rule="evenodd" d="M86.3864 2.4125C85.4829 2.02073 84.5438 1.69082 83.5689 1.42276C82.5941 1.13409 81.6074 0.886642 80.6089 0.680443C79.5865 0.494865 78.5404 0.350533 77.4705 0.247437C76.4243 0.123718 75.3544 0.0515442 74.2607 0.0309219C73.167 -0.0103149 72.0496 -0.0103149 70.9083 0.0309219C69.7909 0.0721664 68.6496 0.154633 67.4846 0.278351C66.3434 0.402069 65.1784 0.556717 63.9896 0.742302C62.8246 0.927879 61.6477 1.1444 60.4589 1.39184C59.2701 1.63927 58.0813 1.91764 56.8925 2.22694C55.6799 2.51562 54.4793 2.84553 53.2905 3.21668C52.0779 3.58784 50.8772 3.97962 49.6884 4.39201C48.4996 4.80441 47.3109 5.23742 46.1221 5.69106C44.9333 6.14469 43.7564 6.62926 42.5914 7.14474C41.4026 7.63963 40.2376 8.16544 39.0963 8.72217C37.9551 9.25829 36.8139 9.81502 35.6726 10.3924C34.5551 10.9697 33.4496 11.5574 32.3559 12.1554C31.2622 12.774 30.1804 13.4028 29.1105 14.0421C28.0644 14.6813 27.0301 15.3308 26.0077 15.9906C25.0092 16.6505 24.0225 17.3206 23.0477 18.0011C22.0729 18.6815 21.1218 19.3826 20.1946 20.1043C19.2673 20.8054 18.3638 21.5271 17.4841 22.2694C16.6044 22.9911 15.7604 23.7334 14.952 24.4963C14.1199 25.2592 13.3234 26.0222 12.5625 26.7851C11.8017 27.548 11.0647 28.3316 10.3514 29.1358C9.63811 29.9193 8.9605 30.7132 8.31856 31.5173C7.67661 32.3421 7.07033 33.1566 6.49971 33.9608C5.92909 34.7856 5.39413 35.6207 4.89484 36.4661C4.37177 37.3115 3.89626 38.1569 3.46829 39.0023C3.04033 39.8477 2.64803 40.7035 2.29139 41.5695C1.93476 42.4355 1.62567 43.3016 1.36414 44.1676C1.07883 45.0336 0.841069 45.91 0.650862 46.7966C0.460656 47.6833 0.306113 48.5699 0.187234 49.4566C0.0921312 50.3432 0.0326917 51.2299 0.00891593 52.1165C-0.0148599 53.0238 0.00891592 53.9207 0.0802433 54.8074C0.151571 55.6941 0.27045 56.591 0.43688 57.4983C0.603311 58.3849 0.805405 59.2716 1.04316 60.1582C1.28092 61.0655 1.55434 61.9522 1.86343 62.8182C2.17251 63.7048 2.51726 64.5812 2.89768 65.4472C3.27809 66.3132 3.70605 67.169 4.18157 68.0144C4.63331 68.8598 5.12071 69.6949 5.64378 70.5197C6.14307 71.3445 6.68991 72.159 7.28431 72.9631C7.85493 73.7673 8.46121 74.5509 9.10316 75.3138C9.7451 76.0767 10.4108 76.8293 11.1003 77.5717C11.7898 78.2933 12.5031 79.0047 13.2401 79.7058C14.001 80.3863 14.7737 81.0564 15.5583 81.7162C16.3429 82.3554 17.1513 82.974 17.9834 83.572C18.8156 84.17 19.6596 84.7473 20.5155 85.3041C21.3952 85.8608 22.2868 86.3866 23.1903 86.8815C24.07 87.3557 24.9854 87.8094 25.9364 88.2424C26.8637 88.6754 27.8028 89.0775 28.7539 89.4487C29.7049 89.8198 30.6797 90.16 31.6783 90.4693C32.6531 90.7786 33.6398 91.0467 34.6384 91.2735C35.6369 91.5209 36.6474 91.7375 37.6698 91.923C38.6684 92.1086 39.6907 92.2633 40.7369 92.387C41.7592 92.5107 42.7935 92.6035 43.8396 92.6653C44.862 92.7272 45.8962 92.7684 46.9423 92.7891C47.9885 92.7891 49.0346 92.7684 50.0807 92.7272C51.1269 92.686 52.1849 92.6241 53.2548 92.5416C54.3009 92.4385 55.3352 92.3148 56.3576 92.1705C57.4037 92.0261 58.4498 91.8509 59.496 91.6447C60.5183 91.4591 61.5526 91.2426 62.5987 90.9951C63.6211 90.7477 64.6315 90.4796 65.6301 90.191C66.6525 89.8817 67.6629 89.5621 68.6615 89.2321C69.6363 88.9022 70.6111 88.5414 71.5859 88.1496C72.5608 87.7785 73.5237 87.3764 74.4747 86.9434C75.4257 86.531 76.3649 86.0876 77.2921 85.6134C78.1956 85.1597 79.0991 84.6752 80.0026 84.1597C80.8823 83.6648 81.7501 83.1493 82.606 82.6132C83.4857 82.0771 84.3298 81.51 85.1382 80.9121C85.9703 80.3347 86.7787 79.747 87.5633 79.1491C88.3479 78.5305 89.1206 77.8913 89.8814 77.2314C90.6185 76.5716 91.3436 75.9015 92.0569 75.221C92.7702 74.5405 93.4597 73.8395 94.1254 73.1178C94.7911 72.3961 95.4331 71.6538 96.0513 70.8908C96.6694 70.1485 97.2638 69.3753 97.8344 68.5711C98.4288 67.7876 98.9875 66.9937 99.5106 66.1895C100.034 65.3647 100.533 64.5296 101.009 63.6842C101.484 62.8182 101.936 61.9522 102.364 61.0861C102.792 60.1995 103.184 59.3025 103.541 58.3952C103.921 57.488 104.266 56.5601 104.575 55.6116C104.884 54.6837 105.169 53.7352 105.431 52.766C105.669 51.7969 105.894 50.8175 106.108 49.8277C106.299 48.838 106.453 47.8379 106.572 46.8275C106.715 45.7966 106.822 44.7656 106.893 43.7346C106.964 42.7036 107 41.6623 107 40.6107C107 39.5591 106.976 38.5075 106.929 37.4559C106.857 36.3836 106.762 35.3217 106.643 34.2701C106.524 33.2185 106.382 32.1669 106.215 31.1153C106.025 30.0637 105.811 29.0224 105.573 27.9914C105.336 26.9604 105.062 25.9397 104.753 24.9293C104.444 23.919 104.111 22.9292 103.755 21.9601C103.374 20.9909 102.97 20.0321 102.542 19.0836C102.114 18.1351 101.65 17.2175 101.151 16.3309C100.676 15.4442 100.164 14.5782 99.6176 13.7328C99.047 12.8874 98.4645 12.0729 97.8701 11.2893C97.2519 10.5058 96.61 9.75315 95.9442 9.03146C95.2547 8.33039 94.5415 7.66026 93.8044 7.02104C93.0912 6.38183 92.3303 5.77354 91.522 5.19618C90.7374 4.63945 89.9171 4.13425 89.0612 3.68063C88.2052 3.20637 87.3136 2.78366 86.3864 2.4125Z" fill="#F6ABAD"/>
<path d="M47.648 42.296V38.48H54.296V56H50.024V42.296H47.648Z" fill="#1C2E44"/>
</g>
<defs>
<clipPath id="clip0_537_2808">
<rect width="107" height="93" fill="white"/>
</clipPath>
</defs>
</svg>
