<svg xmlns="http://www.w3.org/2000/svg" xmlns:xlink="http://www.w3.org/1999/xlink" width="1080" zoomAndPan="magnify" viewBox="0 0 810 809.999993" height="1080" preserveAspectRatio="xMidYMid meet" version="1.0"><defs><clipPath id="c6ff209734"><path d="M 243 570.375 L 563 570.375 L 563 810 L 243 810 Z M 243 570.375 " clip-rule="nonzero"/></clipPath></defs><g clip-path="url(#c6ff209734)"><path fill="#1c2e44" d="M 333.652344 785.589844 C 337.234375 790.734375 338.671875 797.597656 334.503906 802.902344 C 329.460938 809.324219 321.484375 808.878906 314.171875 808.910156 C 299.515625 808.976562 297.664062 804.535156 294.117188 791.757812 L 288.757812 772.863281 C 283.667969 754.207031 286.933594 752.027344 297.335938 737.570312 C 307.222656 723.824219 299.390625 718.351562 297.53125 704.40625 C 296.1875 694.34375 298.816406 680.28125 307.402344 674.09375 C 280.703125 662.132812 259.414062 642.726562 248.226562 615.597656 L 245.742188 608.847656 C 244.171875 604.128906 243.03125 599.574219 245.082031 594.777344 C 248.167969 587.554688 257.949219 584.09375 264.007812 590.011719 C 266.53125 592.476562 267.710938 595.929688 269.109375 599.082031 C 278.773438 620.882812 297.511719 641.148438 320.363281 648.898438 C 321.441406 649.261719 322.699219 649.480469 323.722656 649.953125 L 324.011719 650.089844 C 325.023438 650.472656 326.625 650.484375 327.703125 650.511719 L 417.703125 650.519531 C 424.414062 650.347656 427.101562 648.75 428.464844 642.527344 L 429.78125 637.035156 C 431.984375 629.390625 439.855469 621.546875 440.128906 616.074219 L 440.34375 607.203125 C 440.371094 599.863281 441.050781 593.023438 446.230469 587.179688 C 454.933594 577.363281 474.171875 571.300781 486.710938 570.46875 L 491.675781 570.402344 C 507.308594 570.527344 521.003906 576.90625 530.539062 589.667969 L 534.078125 594.605469 C 537.53125 599.398438 539.371094 598.925781 544.859375 600.105469 C 547.394531 600.652344 549.820312 601.773438 552.316406 602.28125 C 555.574219 602.949219 558.210938 602.203125 560.8125 604.917969 C 567.007812 611.382812 557.886719 635.8125 553.332031 641.921875 C 546.09375 651.628906 532.957031 656.96875 521.066406 657.875 C 519.625 657.988281 517.53125 657.796875 516.207031 658.324219 C 507.429688 661.824219 509.339844 670.578125 509.671875 677.925781 L 509.792969 688.847656 C 509.609375 704.746094 502.976562 721.851562 492.835938 734.179688 C 491.117188 736.269531 489.136719 738.183594 487.570312 740.371094 C 488.0625 744.089844 487.902344 747.878906 487.90625 751.621094 L 487.933594 768.363281 C 487.9375 771.105469 487.617188 774.394531 488.144531 777.070312 C 488.640625 779.585938 491.644531 780.679688 492.332031 783.242188 C 493.589844 787.933594 488.675781 792.050781 484.648438 793.066406 C 488.351562 803.011719 480.421875 808.089844 471.722656 809.039062 C 467.34375 809.519531 456.679688 810.007812 452.230469 809.410156 L 451.9375 809.367188 C 445.261719 808.445312 444.484375 801.054688 443.0625 795.742188 C 439.785156 783.492188 437.121094 771.070312 436.007812 758.429688 C 429.179688 757.699219 422.371094 756.457031 415.640625 755.121094 L 372.546875 745.085938 C 370.9375 752.730469 362.15625 761.988281 362.03125 764.925781 C 362.953125 767.007812 365.730469 768.050781 367.585938 769.1875 C 377.835938 775.46875 377.925781 789.375 366.066406 792.113281 C 364.085938 792.570312 361.953125 792.511719 359.933594 792.570312 L 349.539062 792.640625 C 334.019531 792.238281 330.722656 772.253906 331.132812 759.964844 C 329.675781 761.648438 328.546875 762.613281 327.011719 764.613281 L 323.152344 769.949219 C 316.589844 779.988281 328.222656 779.101562 333.652344 785.589844 Z M 487.355469 580.808594 C 479.949219 581.351562 473 583.507812 466.191406 586.375 C 453.355469 591.785156 450.851562 594.683594 450.84375 607.535156 L 450.835938 617.695312 C 450.835938 620.042969 450.5625 622.542969 450.761719 624.871094 C 451.9375 638.753906 469.578125 644.429688 481.148438 645.230469 L 482.351562 635.273438 C 483.1875 630.328125 484.402344 625.484375 484.996094 620.492188 C 485.53125 615.976562 486.023438 606.613281 485.921875 602.167969 L 485.632812 598.277344 C 485.300781 595.511719 484.796875 593.027344 487.277344 591.019531 C 489.449219 589.261719 493.101562 590.425781 494.621094 592.496094 C 498.292969 597.488281 495.984375 620.640625 494.859375 626.75 L 491.519531 646.480469 C 491.078125 651.171875 489.871094 654.980469 484.414062 655.738281 L 484.128906 655.777344 C 473.941406 657.105469 459.359375 651.640625 451.566406 645.488281 C 447.554688 642.324219 444.859375 638.179688 442.257812 633.863281 C 439.824219 639.214844 439.816406 641.484375 438.421875 647.015625 C 434.75 661.582031 418.710938 661.035156 407.066406 661.039062 L 328.980469 660.960938 C 304.980469 659.75 279.050781 636.878906 267.160156 617.652344 L 259.453125 603.050781 C 258.445312 600.683594 257.472656 594.785156 254.261719 599.46875 C 252.992188 601.3125 259.792969 616.105469 260.863281 618.195312 C 271.761719 639.449219 289.25 654.464844 311.105469 664.164062 L 316.476562 666.457031 C 319.742188 667.839844 324.539062 670.535156 321.910156 674.9375 C 320.621094 677.09375 317.550781 678.417969 315.617188 679.964844 C 308.464844 685.691406 306.808594 696.578125 308.40625 705.148438 C 308.992188 708.296875 310.226562 711.34375 311.113281 714.421875 C 317.664062 737.203125 304.390625 740.585938 297.164062 757.078125 C 295.59375 763.023438 300.34375 776.042969 302.019531 781.882812 L 305.433594 793.320312 C 307.703125 799.882812 308.824219 799.125 315.730469 798.777344 L 320.449219 798.4375 C 321.796875 798.367188 323.210938 798.390625 324.53125 798.109375 C 327.167969 797.542969 326.355469 792.738281 324.75 791.511719 C 323.585938 790.621094 321.816406 790.21875 320.46875 789.589844 C 308.820312 784.160156 307.886719 773.425781 314.871094 763.636719 C 321.820312 753.90625 324.199219 751.34375 334.769531 745.808594 C 348.316406 738.71875 359.550781 731.058594 361.386719 714.5 C 361.605469 712.515625 361.402344 709.976562 362.144531 708.125 C 364.324219 702.683594 373.554688 701.898438 371.953125 715.191406 C 371.195312 721.476562 369.195312 727.976562 365.738281 733.320312 C 371.015625 733.746094 376.421875 735.148438 381.566406 736.367188 L 411.066406 743.589844 L 432.949219 747.363281 C 433.78125 747.46875 434.714844 747.476562 435.523438 747.691406 L 435.570312 736.039062 C 435.574219 734.054688 435.300781 731.527344 435.769531 729.597656 C 436.949219 724.714844 443.253906 724.128906 445.527344 728.359375 L 445.628906 728.53125 C 446.179688 729.496094 446.007812 730.972656 446.007812 732.058594 L 446.011719 736.964844 C 446.011719 742.96875 445.765625 749.089844 446.117188 755.074219 C 446.65625 764.199219 448.742188 773.390625 450.59375 782.320312 L 453.164062 793.550781 C 453.660156 795.417969 454.148438 797.449219 454.875 799.230469 L 461.792969 799.164062 C 465.25 798.957031 472.890625 799.382812 474.886719 797.988281 C 476.78125 794.851562 471.996094 793.09375 470.085938 792.351562 C 464.027344 790.003906 463.351562 785.308594 462.546875 779.632812 C 460.683594 766.460938 462.804688 748.261719 473.144531 738.964844 L 478.074219 734.8125 C 491.09375 722.714844 499.722656 704.488281 499.574219 686.671875 C 499.46875 674.34375 495.152344 664.316406 504.980469 653.96875 C 508.507812 650.257812 511.996094 646.839844 517.253906 646.800781 C 537.175781 646.652344 545.144531 640.246094 551.355469 620.855469 C 547.164062 619.027344 545.515625 615.394531 543.941406 611.363281 L 543.6875 610.71875 C 538.695312 609.917969 529.144531 606.324219 525.957031 601.898438 C 524.441406 599.796875 523.359375 597.390625 521.828125 595.269531 C 514.03125 584.457031 500.300781 579.875 487.355469 580.808594 Z M 360.105469 743.5625 C 357.429688 744.84375 355.214844 746.984375 352.6875 748.546875 L 347.3125 751.578125 C 342.105469 754.433594 341.625 756.515625 341.371094 762.246094 C 341.152344 767.3125 341.984375 772.265625 344.257812 776.824219 C 346.347656 781.023438 347.386719 782.125 351.875 782.101562 L 356.800781 782.050781 C 358.316406 782.058594 363.195312 782.40625 364.320312 781.382812 C 364.570312 778.445312 362.882812 778.296875 360.496094 777.214844 C 347.75 771.433594 349.601562 761.660156 357.839844 751.8125 C 359.25 750.125 365.871094 743.324219 360.105469 743.5625 Z M 477.433594 748.347656 C 473.652344 756.351562 472.496094 765.722656 472.5625 774.539062 C 472.578125 776.554688 472.195312 780.207031 473.8125 781.777344 C 475.148438 782.515625 476.996094 782.472656 477.867188 781.121094 Z M 477.433594 748.347656 " fill-opacity="1" fill-rule="nonzero"/></g><path fill="#1c2e44" d="M 514.34375 610.285156 C 505.425781 610.609375 503.335938 599.511719 512.453125 596.984375 C 521.683594 595.984375 523.351562 608.25 514.34375 610.285156 Z M 514.34375 610.285156 " fill-opacity="1" fill-rule="nonzero"/></svg>