<svg xmlns="http://www.w3.org/2000/svg" xmlns:xlink="http://www.w3.org/1999/xlink" width="1080" zoomAndPan="magnify" viewBox="0 0 810 809.999993" height="1080" preserveAspectRatio="xMidYMid meet" version="1.0"><defs><clipPath id="359fefef80"><path d="M 470 152.523438 L 723.335938 152.523438 L 723.335938 657.273438 L 470 657.273438 Z M 470 152.523438 " clip-rule="nonzero"/></clipPath><clipPath id="74912fa660"><path d="M 86.585938 235 L 534 235 L 534 657.273438 L 86.585938 657.273438 Z M 86.585938 235 " clip-rule="nonzero"/></clipPath><clipPath id="9d03e64c76"><path d="M 251 492 L 471 492 L 471 657.273438 L 251 657.273438 Z M 251 492 " clip-rule="nonzero"/></clipPath></defs><g clip-path="url(#359fefef80)"><path fill="#1c2e44" d="M 701.980469 220.144531 Z M 569.652344 657.472656 L 525.746094 657.472656 C 507.90625 657.472656 493.371094 643.238281 492.8125 625.527344 L 482.09375 561.167969 L 470.988281 483.382812 C 470.6875 481.496094 470.945312 479.566406 471.632812 477.765625 L 493.585938 422.878906 L 513.996094 431.027344 L 493.113281 483.167969 L 503.789062 557.777344 L 514.597656 622.742188 C 514.726562 623.339844 514.769531 623.941406 514.769531 624.542969 C 514.769531 630.589844 519.699219 635.519531 525.746094 635.519531 L 569.652344 635.519531 C 569.652344 630.332031 563.4375 623.597656 553.015625 617.507812 C 542.980469 611.636719 536.722656 600.699219 536.722656 589.039062 L 536.722656 503.792969 C 536.722656 491.828125 547.054688 479.78125 566.867188 457.785156 C 587.664062 434.671875 613.5625 405.898438 613.5625 383.042969 L 613.5625 306.203125 C 613.5625 283.222656 651.683594 251.320312 668.449219 251.320312 C 690.574219 251.320312 699.921875 227.390625 701.207031 219.160156 C 701.078125 218.988281 700.90625 218.859375 700.777344 218.6875 L 668.449219 218.386719 C 654.683594 218.386719 646.152344 208.609375 637.875 199.175781 C 627.242188 187.042969 616.261719 174.480469 591.609375 174.480469 C 578.871094 174.992188 528.273438 207.066406 525.703125 218.773438 C 525.746094 230.738281 558.71875 271.773438 569.824219 273.273438 C 574.070312 273.273438 580.628906 270.355469 580.628906 262.296875 L 580.628906 207.410156 L 602.585938 207.410156 L 602.585938 262.296875 C 602.585938 282.921875 585.820312 295.226562 569.652344 295.226562 C 546.328125 295.226562 503.789062 241.371094 503.789062 218.386719 C 503.789062 191.074219 573.769531 152.523438 591.609375 152.523438 C 626.210938 152.523438 643.191406 171.90625 654.382812 184.726562 C 659.914062 191.03125 664.632812 196.433594 668.449219 196.433594 L 700.523438 196.433594 C 706.996094 196.433594 713.085938 199.261719 717.246094 204.152344 C 719.515625 206.808594 723.332031 211.269531 723.332031 217.488281 C 723.332031 233.351562 706.996094 273.273438 668.449219 273.273438 C 659.957031 274.429688 635.515625 297.242188 635.515625 306.203125 L 635.515625 383.042969 C 635.515625 414.304688 606.53125 446.550781 583.203125 472.449219 C 573.167969 483.597656 559.40625 498.90625 558.675781 504.007812 L 558.675781 589.039062 C 558.675781 592.941406 560.777344 596.585938 564.121094 598.558594 C 582.089844 609.0625 591.609375 621.839844 591.609375 635.519531 C 591.609375 649.796875 580.289062 657.472656 569.652344 657.472656 " fill-opacity="1" fill-rule="nonzero"/></g><g clip-path="url(#74912fa660)"><path fill="#1c2e44" d="M 241.152344 566.097656 Z M 174.476562 657.472656 C 125.25 657.472656 86.660156 623.726562 86.660156 580.632812 C 86.660156 554.347656 99.910156 536.726562 119.589844 536.726562 C 139.613281 536.726562 145.445312 554.175781 149.648438 566.910156 C 155.050781 583.121094 158.609375 591.609375 174.476562 591.609375 C 206.550781 591.609375 234.507812 573.429688 240.339844 567.125 C 241.496094 465.542969 311.90625 420.5625 363.445312 387.632812 C 377.210938 378.84375 389.085938 371.253906 397.835938 363.75 C 458.082031 312.121094 489.125 282.578125 513.523438 235.152344 L 533.078125 245.1875 C 505.976562 297.84375 469.316406 331.417969 412.15625 380.386719 C 402.207031 388.917969 389.128906 397.28125 375.28125 406.113281 C 324.941406 438.273438 262.292969 478.324219 262.292969 569.65625 C 262.292969 586.980469 215.210938 613.566406 174.476562 613.566406 C 142.015625 613.566406 134.082031 589.636719 128.851562 573.816406 C 124.476562 560.652344 122.847656 558.679688 119.589844 558.679688 C 110.929688 558.679688 108.613281 572.484375 108.613281 580.632812 C 108.613281 611.421875 137.554688 635.519531 174.476562 635.519531 C 215.296875 635.519531 256.976562 614.9375 257.363281 614.722656 L 267.222656 634.363281 C 265.335938 635.304688 220.441406 657.472656 174.476562 657.472656 " fill-opacity="1" fill-rule="nonzero"/></g><g clip-path="url(#9d03e64c76)"><path fill="#1c2e44" d="M 439.300781 657.472656 L 281.546875 657.472656 C 271.210938 657.472656 261.777344 652.199219 256.332031 643.410156 C 254.445312 640.363281 251.316406 635.304688 251.316406 629.042969 C 251.316406 622.699219 253.417969 617.722656 255.046875 614.550781 L 263.449219 597.65625 L 283.089844 607.519531 L 274.683594 624.371094 C 273.65625 626.34375 273.269531 627.714844 273.269531 629.042969 C 273.398438 629.300781 274.554688 631.144531 274.984375 631.832031 C 276.402344 634.148438 278.886719 635.519531 281.546875 635.519531 L 439.300781 635.519531 C 442.515625 635.476562 446.589844 634.746094 448.691406 633.890625 C 445.472656 621.882812 406.882812 613.609375 372.066406 613.566406 C 366.363281 613.566406 361.601562 609.191406 361.128906 603.53125 C 360.660156 597.871094 364.5625 592.769531 370.179688 591.78125 C 372.023438 591.4375 415.972656 583.078125 415.972656 547.703125 C 415.972656 527.890625 376.351562 514.769531 350.109375 514.769531 L 350.109375 492.816406 C 385.527344 492.816406 437.925781 510.269531 437.925781 547.703125 C 437.925781 569.140625 427.550781 584.578125 414.429688 595.125 C 441.574219 599.757812 470.859375 610.605469 470.859375 635.519531 C 470.859375 650.699219 454.992188 657.472656 439.300781 657.472656 " fill-opacity="1" fill-rule="nonzero"/></g><path fill="#1c2e44" d="M 431.496094 568.027344 L 420.046875 549.332031 L 481.707031 511.597656 L 493.15625 530.292969 L 431.496094 568.027344 " fill-opacity="1" fill-rule="nonzero"/></svg>