<svg xmlns="http://www.w3.org/2000/svg" xmlns:xlink="http://www.w3.org/1999/xlink" width="1080" zoomAndPan="magnify" viewBox="0 0 810 809.999993" height="1080" preserveAspectRatio="xMidYMid meet" version="1.0"><defs><clipPath id="cdcf4720e2"><path d="M 60.878906 329 L 194 329 L 194 347 L 60.878906 347 Z M 60.878906 329 " clip-rule="nonzero"/></clipPath><clipPath id="c685ab94dd"><path d="M 202 185.917969 L 729 185.917969 L 729 624.019531 L 202 624.019531 Z M 202 185.917969 " clip-rule="nonzero"/></clipPath></defs><path fill="#1c2e44" d="M 228.191406 407.164062 C 228.191406 402.351562 224.292969 398.449219 219.472656 398.449219 L 126.757812 398.449219 C 121.9375 398.449219 118.039062 402.351562 118.039062 407.164062 C 118.039062 411.976562 121.9375 415.882812 126.757812 415.882812 L 219.472656 415.882812 C 224.292969 415.882812 228.191406 411.976562 228.191406 407.164062 " fill-opacity="1" fill-rule="nonzero"/><path fill="#1c2e44" d="M 219.472656 260.488281 L 126.757812 260.488281 C 121.9375 260.488281 118.039062 264.390625 118.039062 269.203125 C 118.039062 274.015625 121.9375 277.921875 126.757812 277.921875 L 219.472656 277.921875 C 224.292969 277.921875 228.191406 274.015625 228.191406 269.203125 C 228.191406 264.390625 224.292969 260.488281 219.472656 260.488281 " fill-opacity="1" fill-rule="nonzero"/><g clip-path="url(#cdcf4720e2)"><path fill="#1c2e44" d="M 69.59375 346.898438 L 184.386719 346.898438 C 189.199219 346.898438 193.097656 342.996094 193.097656 338.183594 C 193.097656 333.371094 189.199219 329.464844 184.386719 329.464844 L 69.59375 329.464844 C 64.777344 329.464844 60.878906 333.371094 60.878906 338.183594 C 60.878906 342.996094 64.777344 346.898438 69.59375 346.898438 " fill-opacity="1" fill-rule="nonzero"/></g><path fill="#1c2e44" d="M 631.460938 544.246094 C 621.652344 544.246094 613.695312 552.195312 613.695312 562.007812 C 613.695312 571.820312 621.652344 579.769531 631.460938 579.769531 C 641.273438 579.769531 649.226562 571.820312 649.226562 562.007812 C 649.226562 552.195312 641.273438 544.246094 631.460938 544.246094 " fill-opacity="1" fill-rule="nonzero"/><path fill="#1c2e44" d="M 299.851562 544.246094 C 290.039062 544.246094 282.089844 552.195312 282.089844 562.007812 C 282.089844 571.820312 290.039062 579.769531 299.851562 579.769531 C 309.664062 579.769531 317.613281 571.820312 317.613281 562.007812 C 317.613281 552.195312 309.664062 544.246094 299.851562 544.246094 " fill-opacity="1" fill-rule="nonzero"/><path fill="#1c2e44" d="M 667.914062 440.375 L 569.289062 440.375 L 569.289062 341.742188 L 603.394531 341.742188 L 667.914062 406.273438 Z M 551.855469 324.308594 L 551.855469 457.800781 L 685.347656 457.800781 L 685.347656 399.054688 L 610.605469 324.308594 L 551.855469 324.308594 " fill-opacity="1" fill-rule="nonzero"/><g clip-path="url(#c685ab94dd)"><path fill="#1c2e44" d="M 711.566406 544.863281 C 711.566406 549.375 707.890625 553.050781 703.382812 553.050781 L 692.75 553.050781 C 688.386719 523.101562 662.609375 500 631.460938 500 C 600.3125 500 574.535156 523.101562 570.167969 553.050781 L 361.136719 553.050781 C 356.773438 523.101562 330.996094 500 299.847656 500 C 268.710938 500 242.941406 523.089844 238.566406 553.035156 C 228.175781 552.945312 219.738281 544.476562 219.738281 534.0625 L 219.738281 487.582031 L 525.300781 487.582031 L 525.300781 298.089844 L 590.726562 298.089844 C 610.847656 298.089844 629.757812 305.925781 643.992188 320.152344 L 689.507812 365.664062 C 703.730469 379.894531 711.566406 398.808594 711.566406 418.929688 Z M 631.460938 606.589844 C 606.878906 606.589844 586.878906 586.59375 586.878906 562.007812 C 586.878906 537.429688 606.878906 517.433594 631.460938 517.433594 C 656.042969 517.433594 676.039062 537.429688 676.039062 562.007812 C 676.039062 586.59375 656.042969 606.589844 631.460938 606.589844 Z M 299.847656 606.589844 C 275.265625 606.589844 255.277344 586.59375 255.277344 562.007812 C 255.277344 537.429688 275.265625 517.433594 299.847656 517.433594 C 324.425781 517.433594 344.429688 537.429688 344.429688 562.007812 C 344.429688 586.59375 324.425781 606.589844 299.847656 606.589844 Z M 656.316406 307.828125 C 638.796875 290.308594 615.503906 280.660156 590.726562 280.660156 L 525.300781 280.660156 L 525.300781 213.484375 C 525.300781 198.277344 512.9375 185.914062 497.726562 185.914062 L 229.875 185.914062 C 214.675781 185.914062 202.3125 198.277344 202.3125 213.484375 L 202.3125 237.828125 C 202.3125 242.640625 206.207031 246.539062 211.023438 246.539062 C 215.839844 246.539062 219.738281 242.640625 219.738281 237.828125 L 219.738281 213.484375 C 219.738281 207.894531 224.285156 203.34375 229.875 203.34375 L 497.726562 203.34375 C 503.316406 203.34375 507.871094 207.894531 507.871094 213.484375 L 507.871094 470.152344 L 219.738281 470.152344 L 219.738281 442.789062 C 219.738281 437.976562 215.839844 434.074219 211.023438 434.074219 C 206.207031 434.074219 202.3125 437.976562 202.3125 442.789062 L 202.3125 534.0625 C 202.3125 554.0625 218.523438 570.328125 238.488281 570.457031 C 242.632812 600.65625 268.527344 624.019531 299.847656 624.019531 C 331.164062 624.019531 357.058594 600.671875 361.214844 570.484375 L 570.097656 570.484375 C 574.25 600.671875 600.144531 624.019531 631.460938 624.019531 C 662.777344 624.019531 688.671875 600.671875 692.828125 570.484375 L 703.382812 570.484375 C 717.511719 570.484375 729 558.992188 729 544.863281 L 729 418.929688 C 729 394.152344 719.347656 370.863281 701.832031 353.339844 L 656.316406 307.828125 " fill-opacity="1" fill-rule="nonzero"/></g></svg>