<svg xmlns="http://www.w3.org/2000/svg" xmlns:xlink="http://www.w3.org/1999/xlink" width="1080" zoomAndPan="magnify" viewBox="0 0 810 809.999993" height="1080" preserveAspectRatio="xMidYMid meet" version="1.0"><defs><clipPath id="e0cd5d5286"><path d="M 160 155.589844 L 650.351562 155.589844 L 650.351562 654.339844 L 160 654.339844 Z M 160 155.589844 " clip-rule="nonzero"/></clipPath></defs><g clip-path="url(#e0cd5d5286)"><path fill="#1c2e44" d="M 241.644531 155.578125 L 559.566406 155.578125 C 564.316406 155.578125 568.164062 159.429688 568.164062 164.175781 L 568.164062 265.695312 L 594.007812 265.695312 C 598.335938 265.695312 601.992188 268.910156 602.535156 273.203125 L 650.085938 644.691406 C 650.109375 644.882812 650.027344 645.0625 650.039062 645.253906 C 650.082031 645.953125 649.988281 646.621094 649.863281 647.308594 C 649.777344 647.773438 649.738281 648.222656 649.578125 648.664062 C 649.347656 649.308594 648.964844 649.871094 648.578125 650.453125 C 648.363281 650.777344 648.273438 651.167969 648.011719 651.464844 C 647.066406 652.421875 646.488281 652.664062 645.949219 652.992188 C 645.59375 653.207031 645.296875 653.5 644.917969 653.660156 C 643.839844 654.121094 642.707031 654.386719 641.558594 654.386719 L 168.664062 654.386719 C 166.273438 654.386719 163.984375 653.386719 162.355469 651.628906 C 160.730469 649.871094 159.90625 647.515625 160.089844 645.125 L 188.621094 273.636719 C 188.964844 269.15625 192.703125 265.695312 197.195312 265.695312 L 233.046875 265.695312 L 233.046875 164.175781 C 233.046875 159.429688 236.894531 155.578125 241.644531 155.578125 Z M 509.328125 172.777344 L 250.246094 172.777344 L 250.246094 265.695312 L 509.328125 265.695312 Z M 621.246094 637.183594 L 574.109375 588.550781 L 535.683594 637.183594 Z M 524.820312 623.1875 L 564.503906 572.957031 L 537.140625 330.824219 C 536.609375 326.105469 540 321.847656 544.722656 321.316406 C 549.40625 320.742188 553.699219 324.175781 554.234375 328.894531 L 581.664062 571.628906 L 629.742188 621.238281 L 586.4375 282.894531 L 559.566406 282.894531 C 554.816406 282.894531 550.964844 279.042969 550.964844 274.292969 L 550.964844 172.777344 L 526.53125 172.777344 L 526.53125 274.292969 C 526.53125 279.042969 522.679688 282.894531 517.929688 282.894531 L 498.6875 282.894531 Z M 205.164062 282.894531 L 177.949219 637.183594 L 508.644531 637.183594 L 481.433594 282.894531 Z M 205.164062 282.894531 " fill-opacity="1" fill-rule="nonzero"/></g><path fill="#1c2e44" d="M 438.503906 341.898438 C 443.253906 341.898438 447.105469 345.75 447.105469 350.5 L 447.105469 575.511719 C 447.105469 580.257812 443.253906 584.109375 438.503906 584.109375 L 241.644531 584.109375 C 236.894531 584.109375 233.046875 580.257812 233.046875 575.511719 L 233.046875 350.5 C 233.046875 345.75 236.894531 341.898438 241.644531 341.898438 Z M 250.246094 566.910156 L 429.902344 566.910156 L 429.902344 359.097656 L 250.246094 359.097656 Z M 250.246094 566.910156 " fill-opacity="1" fill-rule="nonzero"/><path fill="#1c2e44" d="M 372.453125 472.027344 C 372.585938 472.605469 373.066406 473.261719 373.753906 473.78125 C 375.121094 474.820312 376.453125 475.921875 377.738281 477.105469 C 388.167969 486.640625 394.148438 498.796875 394.148438 510.457031 C 394.148438 518.789062 390.964844 526.285156 385.179688 531.574219 C 379.441406 536.820312 371.710938 539.476562 363.230469 539.476562 C 355.992188 539.476562 348.203125 537.542969 340.644531 533.640625 C 338.582031 532.578125 336.113281 532.566406 334.050781 533.640625 C 317.640625 542.117188 300.140625 541.308594 289.507812 531.574219 C 283.726562 526.285156 280.542969 518.789062 280.542969 510.457031 C 280.542969 498.796875 286.523438 486.640625 296.953125 477.105469 C 298.238281 475.921875 299.570312 474.828125 300.945312 473.777344 C 301.625 473.261719 302.109375 472.605469 302.238281 472.027344 C 305.679688 456.566406 320.449219 445.339844 337.347656 445.339844 C 354.25 445.339844 369.015625 456.566406 372.453125 472.027344 Z M 355.664062 475.765625 C 353.960938 468.101562 346.257812 462.539062 337.347656 462.539062 C 328.4375 462.539062 320.734375 468.105469 319.027344 475.765625 C 318.011719 480.324219 315.28125 484.484375 311.363281 487.464844 C 310.410156 488.191406 309.472656 488.960938 308.566406 489.789062 C 301.789062 495.988281 297.742188 503.714844 297.742188 510.457031 C 297.742188 514.003906 298.878906 516.832031 301.117188 518.882812 C 306.222656 523.542969 316.523438 523.34375 326.164062 518.347656 C 333.167969 514.746094 341.53125 514.742188 348.535156 518.351562 C 358.171875 523.34375 368.46875 523.542969 373.574219 518.882812 C 375.8125 516.832031 376.945312 514.003906 376.945312 510.457031 C 376.945312 503.714844 372.902344 495.988281 366.125 489.789062 C 365.222656 488.964844 364.292969 488.199219 363.347656 487.476562 C 359.410156 484.484375 356.679688 480.324219 355.664062 475.765625 Z M 355.664062 475.765625 " fill-opacity="1" fill-rule="nonzero"/><path fill="#1c2e44" d="M 403.605469 470.046875 C 399.507812 473.984375 394.648438 476.078125 389.820312 476.078125 C 388.519531 476.078125 387.222656 475.925781 385.941406 475.617188 C 379.910156 474.160156 375.117188 469.410156 372.773438 462.585938 C 370.863281 457.015625 370.675781 450.34375 372.257812 443.820312 C 375.917969 428.722656 387.644531 419.019531 398.964844 421.785156 C 404.992188 423.242188 409.789062 427.992188 412.128906 434.816406 C 414.042969 440.394531 414.222656 447.058594 412.644531 453.582031 C 411.066406 460.113281 407.855469 465.964844 403.605469 470.046875 Z M 395.101562 438.519531 C 393.964844 438.652344 390.488281 441.621094 388.976562 447.863281 C 387.464844 454.101562 389.203125 458.332031 389.804688 458.878906 C 390.9375 458.753906 394.414062 455.785156 395.925781 449.539062 C 397.4375 443.296875 395.695312 439.066406 395.101562 438.519531 Z M 395.101562 438.519531 " fill-opacity="1" fill-rule="nonzero"/><path fill="#1c2e44" d="M 373.324219 432.929688 C 368.96875 437.117188 363.8125 439.347656 358.703125 439.347656 C 357.339844 439.347656 355.976562 439.1875 354.636719 438.863281 C 348.277344 437.328125 343.210938 432.289062 340.722656 425.046875 C 338.664062 419.039062 338.472656 411.851562 340.179688 404.796875 C 341.886719 397.746094 345.347656 391.4375 349.921875 387.039062 C 355.441406 381.726562 362.253906 379.578125 368.605469 381.109375 C 374.964844 382.644531 380.039062 387.683594 382.519531 394.929688 C 384.578125 400.929688 384.769531 408.117188 383.066406 415.167969 C 381.359375 422.222656 377.898438 428.53125 373.324219 432.929688 Z M 366.246094 400.503906 C 365.550781 398.460938 364.703125 397.863281 364.5625 397.824219 C 364.269531 397.820312 363.28125 398.050781 361.84375 399.4375 C 359.632812 401.5625 357.832031 404.988281 356.898438 408.84375 C 355.96875 412.695312 356 416.566406 356.996094 419.46875 C 357.632812 421.332031 358.464844 422.09375 358.675781 422.144531 C 358.832031 422.179688 359.839844 422.039062 361.402344 420.53125 C 363.613281 418.40625 365.414062 414.980469 366.34375 411.125 C 367.277344 407.273438 367.242188 403.402344 366.246094 400.503906 Z M 366.246094 400.503906 " fill-opacity="1" fill-rule="nonzero"/><path fill="#1c2e44" d="M 302.429688 443.816406 C 304.011719 450.347656 303.828125 457.015625 301.917969 462.585938 C 299.574219 469.410156 294.777344 474.160156 288.753906 475.613281 C 287.472656 475.921875 286.171875 476.078125 284.871094 476.078125 C 280.042969 476.078125 275.179688 473.984375 271.085938 470.050781 C 266.835938 465.964844 263.625 460.113281 262.050781 453.589844 C 260.46875 447.058594 260.648438 440.394531 262.5625 434.816406 C 264.902344 427.992188 269.695312 423.242188 275.730469 421.78125 C 287.074219 419.058594 298.78125 428.730469 302.429688 443.816406 Z M 285.71875 447.863281 C 284.203125 441.621094 280.722656 438.652344 279.9375 438.4375 C 278.996094 439.066406 277.25 443.296875 278.765625 449.542969 C 280.273438 455.785156 283.753906 458.753906 284.542969 458.964844 C 285.484375 458.332031 287.226562 454.101562 285.71875 447.863281 Z M 285.71875 447.863281 " fill-opacity="1" fill-rule="nonzero"/><path fill="#1c2e44" d="M 320.054688 438.863281 C 318.699219 439.191406 317.339844 439.347656 315.984375 439.347656 C 305.328125 439.347656 295.101562 429.539062 291.625 415.171875 C 289.921875 408.117188 290.113281 400.929688 292.171875 394.929688 C 294.65625 387.683594 299.726562 382.644531 306.078125 381.113281 C 312.425781 379.566406 319.242188 381.738281 324.769531 387.039062 C 329.34375 391.4375 332.804688 397.746094 334.511719 404.796875 C 336.21875 411.851562 336.023438 419.039062 333.964844 425.042969 C 331.480469 432.289062 326.414062 437.328125 320.054688 438.863281 Z M 317.792969 408.84375 C 316.859375 404.988281 315.058594 401.5625 312.847656 399.4375 C 311.410156 398.050781 310.425781 397.824219 310.171875 397.824219 C 309.914062 397.878906 309.082031 398.640625 308.445312 400.503906 C 307.449219 403.40625 307.414062 407.273438 308.347656 411.125 C 310.308594 419.242188 315.152344 422.410156 316.015625 422.144531 C 316.226562 422.09375 317.054688 421.332031 317.695312 419.46875 C 318.691406 416.566406 318.722656 412.695312 317.792969 408.84375 Z M 317.792969 408.84375 " fill-opacity="1" fill-rule="nonzero"/><path fill="#1c2e44" d="M 440.882812 249.398438 L 318.695312 249.398438 C 304.449219 249.398438 292.863281 237.8125 292.863281 223.570312 L 292.863281 214.898438 C 292.863281 200.660156 304.449219 189.074219 318.695312 189.074219 L 440.882812 189.074219 C 455.125 189.074219 466.710938 200.660156 466.710938 214.898438 L 466.710938 223.570312 C 466.710938 237.8125 455.125 249.398438 440.882812 249.398438 Z M 449.511719 214.898438 C 449.511719 210.140625 445.640625 206.273438 440.882812 206.273438 L 318.695312 206.273438 C 313.9375 206.273438 310.0625 210.140625 310.0625 214.898438 L 310.0625 223.570312 C 310.0625 228.328125 313.9375 232.195312 318.695312 232.195312 L 440.882812 232.195312 C 445.640625 232.195312 449.511719 228.328125 449.511719 223.570312 Z M 449.511719 214.898438 " fill-opacity="1" fill-rule="nonzero"/></svg>