<svg xmlns="http://www.w3.org/2000/svg" xmlns:xlink="http://www.w3.org/1999/xlink" width="1080" zoomAndPan="magnify" viewBox="0 0 810 809.999993" height="1080" preserveAspectRatio="xMidYMid meet" version="1.0"><defs><clipPath id="9b384e797d"><path d="M 295 632 L 515.390625 632 L 515.390625 809.648438 L 295 809.648438 Z M 295 632 " clip-rule="nonzero"/></clipPath></defs><path fill="#1c2e44" d="M 403.410156 721.867188 C 404.730469 721.609375 405.871094 720.96875 406.691406 720.046875 L 406.691406 720.007812 C 405.871094 720.949219 404.730469 721.609375 403.410156 721.867188 Z M 403.410156 721.867188 " fill-opacity="1" fill-rule="nonzero"/><g clip-path="url(#9b384e797d)"><path fill="#1c2e44" d="M 514.949219 662.578125 C 514.6875 659.640625 513.210938 657.121094 510.808594 655.460938 C 509.371094 654.480469 507.929688 654.019531 506.992188 653.742188 L 506.75 653.660156 C 503.53125 652.640625 500.351562 651.382812 497.011719 650.0625 C 495.3125 649.382812 493.554688 648.703125 491.792969 648.042969 C 489.613281 647.222656 488.375 646.503906 487.496094 645.523438 C 483.015625 640.484375 473.078125 632.003906 457.058594 632.003906 C 454.800781 632.003906 452.480469 632.183594 450.160156 632.503906 C 449.5625 632.585938 448.980469 632.765625 448.421875 632.984375 C 448.339844 632.984375 448.28125 632.964844 448.203125 632.964844 C 447.742188 632.964844 447.28125 633.003906 446.820312 633.085938 C 446.582031 633.125 446.363281 633.183594 446.121094 633.226562 C 444.183594 633.644531 442.28125 634.144531 440.484375 634.746094 C 440.183594 634.84375 439.902344 634.964844 439.625 635.085938 C 439.324219 635.164062 439.042969 635.246094 438.761719 635.34375 C 420.488281 642.222656 420.488281 656.859375 420.488281 662.359375 C 420.488281 662.898438 420.488281 663.441406 420.507812 663.980469 L 420.507812 664.621094 C 420.507812 664.640625 420.507812 664.679688 420.507812 664.699219 C 420.527344 665.339844 420.527344 665.9375 420.527344 666.5 C 420.527344 668.5 420.785156 670.636719 421.066406 672.917969 C 421.625 677.515625 422.265625 682.734375 420.96875 687.074219 C 420.148438 689.855469 418.148438 693.855469 410.390625 696.414062 C 409.367188 696.753906 408.230469 697.113281 406.949219 697.53125 C 396.8125 700.8125 379.894531 706.269531 364.117188 714.46875 C 343.921875 724.96875 331.363281 737.144531 326.765625 750.644531 C 326.484375 751.441406 326.246094 752.261719 326.042969 753.0625 C 325.003906 752.742188 324.046875 752.382812 323.183594 751.984375 C 322.046875 751.441406 320.984375 750.761719 320.046875 749.941406 C 319.046875 749.082031 318.226562 748.125 317.527344 747.023438 C 316.265625 745.023438 315.625 742.84375 315.886719 741.464844 C 315.988281 741.003906 316.066406 740.765625 316.125 740.664062 C 316.125 740.644531 316.148438 740.625 316.148438 740.605469 L 316.328125 740.246094 L 316.40625 740.125 C 316.40625 740.125 316.40625 740.125 316.40625 740.105469 L 316.425781 740.085938 C 316.746094 739.707031 317.304688 739.324219 317.984375 739.003906 C 318.726562 738.664062 319.644531 738.40625 320.644531 738.226562 C 321.746094 738.046875 322.746094 737.984375 323.503906 737.964844 C 323.863281 737.964844 324.183594 737.945312 324.484375 737.945312 C 324.863281 737.945312 325.226562 737.945312 325.566406 737.964844 C 326.226562 737.984375 326.566406 738.003906 326.566406 738.003906 C 326.625 738.003906 326.683594 738.003906 326.722656 738.003906 C 330.464844 738.003906 333.664062 735.265625 334.203125 731.546875 L 334.304688 730.828125 C 334.902344 726.808594 332.203125 723.027344 328.183594 722.289062 L 327.285156 722.128906 C 327.246094 722.128906 327.222656 722.109375 327.183594 722.109375 C 326.34375 721.96875 325.40625 721.808594 324.183594 721.667969 C 322.625 721.488281 321.226562 721.410156 319.785156 721.410156 C 319.546875 721.410156 319.285156 721.410156 319.027344 721.410156 C 318.386719 721.429688 317.867188 721.449219 317.304688 721.488281 C 317.265625 721.488281 317.226562 721.488281 317.1875 721.507812 L 316.964844 721.527344 C 316.847656 721.527344 316.726562 721.546875 316.625 721.570312 C 316.246094 721.609375 315.886719 721.648438 315.566406 721.6875 C 314.125 721.886719 312.808594 722.167969 311.566406 722.546875 C 308.308594 723.507812 305.410156 725.027344 302.988281 727.085938 C 302.667969 727.347656 302.410156 727.585938 302.230469 727.765625 L 302.109375 727.886719 C 301.96875 728.007812 301.847656 728.128906 301.730469 728.246094 C 301.410156 728.566406 301.089844 728.90625 300.828125 729.207031 L 300.570312 729.507812 L 300.46875 729.628906 C 300.269531 729.847656 300.070312 730.085938 299.910156 730.347656 L 299.789062 730.527344 C 299.691406 730.667969 299.609375 730.785156 299.507812 730.925781 C 299.449219 731.027344 299.371094 731.125 299.308594 731.226562 C 299.289062 731.246094 299.269531 731.265625 299.269531 731.285156 C 298.25 732.726562 297.390625 734.367188 296.691406 736.164062 C 295.429688 739.425781 294.890625 743.125 295.152344 746.863281 C 295.371094 750.101562 296.148438 753.421875 297.488281 756.683594 C 298.75 759.78125 300.589844 762.820312 302.789062 765.480469 C 304.96875 768.121094 307.546875 770.460938 310.449219 772.398438 C 312.886719 774.058594 315.625 775.519531 318.605469 776.777344 C 321.445312 777.976562 324.183594 778.757812 326.265625 779.296875 C 326.324219 779.316406 326.382812 779.335938 326.445312 779.335938 C 327.246094 779.519531 327.984375 779.699219 328.722656 779.835938 C 330.722656 784.355469 333.484375 788.894531 337.003906 793.453125 L 337.003906 795.496094 C 337.003906 803.433594 343.820312 809.890625 352.21875 809.890625 L 387.632812 809.890625 C 394.152344 809.890625 399.871094 805.953125 401.871094 800.09375 C 401.871094 800.074219 401.890625 800.035156 401.890625 800.015625 C 402.351562 798.613281 402.589844 797.175781 402.589844 795.714844 C 402.589844 793.816406 402.210938 791.976562 401.429688 790.234375 C 401.390625 790.136719 401.351562 790.054688 401.3125 789.957031 C 409.828125 788.535156 416.90625 786.355469 421.648438 784.636719 L 421.648438 796.753906 C 421.648438 803.992188 427.84375 809.890625 435.445312 809.890625 L 456.5 809.890625 C 456.960938 809.890625 457.398438 809.871094 457.898438 809.8125 C 457.898438 809.8125 457.921875 809.8125 457.921875 809.8125 C 457.921875 809.8125 457.921875 809.8125 457.941406 809.8125 C 457.980469 809.8125 458.039062 809.792969 458.078125 809.792969 C 461.359375 809.433594 464.339844 807.933594 466.519531 805.53125 C 466.738281 805.292969 466.9375 805.03125 467.136719 804.753906 C 468.835938 802.574219 469.777344 799.894531 469.777344 797.152344 C 469.777344 793.914062 468.496094 790.816406 466.179688 788.4375 C 466.136719 788.375 466.078125 788.335938 466.019531 788.277344 C 465.160156 787.417969 464.179688 786.695312 463.117188 786.097656 C 462.800781 785.917969 462.460938 785.757812 462.097656 785.636719 L 460.378906 784.996094 C 460.320312 784.976562 460.28125 784.957031 460.21875 784.9375 L 454.121094 782.71875 L 455.519531 773.238281 C 455.582031 772.878906 455.601562 772.5 455.601562 772.140625 C 455.601562 770.578125 456.5 769.039062 458.078125 767.898438 C 472.15625 757.78125 480.316406 745.425781 482.316406 731.167969 C 483.976562 719.207031 481.054688 708.132812 478.914062 700.03125 C 478.035156 696.714844 477.214844 693.59375 477.097656 691.773438 C 477.054688 691.054688 477.136719 690.632812 477.214844 690.535156 C 477.296875 690.453125 478.074219 689.65625 481.296875 688.996094 C 484.253906 688.394531 487.972656 688.175781 491.855469 687.976562 L 492.132812 687.953125 C 497.511719 687.675781 500.210938 687.496094 502.429688 686.613281 C 507.25 684.695312 510.351562 680.117188 510.890625 674.4375 C 513.449219 672.21875 514.96875 668.878906 515.109375 664.917969 C 515.050781 664.199219 515.027344 663.398438 514.949219 662.578125 Z M 507.46875 664.71875 C 507.410156 666.457031 506.890625 668.398438 505.070312 669.316406 C 503.890625 669.917969 503.132812 669.9375 503.269531 671.378906 C 503.570312 674.277344 502.910156 678.335938 499.550781 679.65625 C 498.351562 680.136719 495.132812 680.296875 491.394531 680.476562 C 479.855469 681.054688 468.859375 681.9375 469.476562 692.253906 C 469.636719 694.832031 470.515625 698.152344 471.515625 701.992188 C 475.675781 717.710938 481.933594 741.445312 453.582031 761.800781 C 450 764.359375 447.960938 768.160156 447.960938 772.160156 L 445.902344 786.117188 C 445.761719 787.097656 446.164062 787.714844 446.800781 788.15625 C 446.800781 788.15625 449.902344 789.296875 449.902344 789.296875 L 457.660156 792.136719 C 457.660156 792.136719 457.679688 792.136719 457.679688 792.136719 L 459.398438 792.773438 C 459.5 792.835938 459.597656 792.914062 459.699219 792.976562 C 460.039062 793.195312 460.378906 793.433594 460.660156 793.734375 L 460.679688 793.753906 C 461.5 794.59375 462.039062 795.695312 462.097656 796.894531 C 462.097656 796.996094 462.117188 797.09375 462.117188 797.195312 C 462.117188 798.433594 461.640625 799.554688 460.839844 800.453125 C 459.917969 801.472656 458.601562 802.171875 457.101562 802.332031 C 456.898438 802.351562 456.679688 802.375 456.441406 802.375 L 455.199219 802.375 C 454.320312 802.375 453.679688 802.375 453.679688 802.375 L 435.382812 802.375 C 431.945312 802.375 429.144531 799.855469 429.144531 796.792969 L 429.144531 782.757812 C 429.144531 782.695312 429.144531 782.597656 429.125 782.4375 C 429.125 782.398438 429.125 782.355469 429.125 782.316406 C 429.125 782.257812 429.125 782.21875 429.105469 782.15625 L 429.105469 782.117188 C 428.867188 778.9375 427.1875 765.179688 416.847656 762.859375 L 415.769531 762.621094 C 415.769531 762.621094 424.925781 766.71875 424.707031 775.257812 C 424.707031 775.257812 409.988281 782.398438 390.3125 783.695312 C 394.453125 779.835938 398.570312 774.859375 398.492188 770.480469 C 398.371094 762.679688 393.832031 757.121094 393.53125 756.882812 L 391.792969 755.460938 L 392.910156 757.320312 C 400.390625 769.839844 392.292969 778.679688 384.132812 783.917969 L 384.054688 783.976562 C 381.253906 785.777344 378.515625 787.078125 376.695312 787.855469 C 380.074219 788.296875 384.59375 788.855469 387.3125 789.175781 C 388.753906 789.355469 389.691406 789.457031 389.691406 789.457031 C 389.734375 789.457031 389.792969 789.457031 389.851562 789.476562 C 391.972656 790.097656 393.671875 791.515625 394.472656 793.355469 C 394.8125 794.09375 394.992188 794.933594 394.992188 795.773438 C 394.992188 796.453125 394.871094 797.09375 394.671875 797.714844 C 393.75 800.433594 390.933594 802.414062 387.59375 802.414062 L 352.199219 802.414062 C 347.960938 802.414062 344.542969 799.355469 344.542969 795.574219 L 344.542969 790.894531 L 344.460938 790.796875 C 340.921875 786.476562 338.164062 782.238281 336.164062 778.078125 C 335.503906 776.699219 334.921875 775.339844 334.441406 773.980469 C 332.601562 768.839844 331.984375 763.839844 332.601562 758.980469 C 332.785156 757.621094 333.042969 756.28125 333.402344 754.941406 C 333.5625 754.363281 333.742188 753.761719 333.941406 753.183594 C 343.140625 726.167969 389.492188 711.210938 409.289062 704.8125 C 410.589844 704.390625 411.75 704.011719 412.789062 703.671875 C 431.703125 697.433594 429.824219 682.15625 428.605469 672.058594 C 428.34375 669.917969 428.105469 668.078125 428.105469 666.578125 C 428.105469 665.9375 428.105469 665.277344 428.085938 664.597656 C 428.085938 663.898438 428.066406 663.179688 428.066406 662.441406 C 428.066406 656.761719 428.804688 649.980469 436.042969 645.203125 C 437.023438 644.5625 438.125 643.941406 439.363281 643.363281 C 440.023438 643.0625 440.703125 642.761719 441.441406 642.503906 C 441.78125 642.984375 442.0625 643.664062 442.222656 644.523438 C 442.523438 645.882812 442.523438 647.683594 442.261719 649.703125 C 442.003906 651.742188 441.5625 654.019531 440.863281 656.5 C 440.183594 658.980469 439.324219 661.640625 438.324219 664.417969 C 438.242188 664.660156 438.144531 664.917969 438.042969 665.160156 C 437.625 666.320312 437.183594 667.5 436.742188 668.699219 C 436.464844 669.417969 436.183594 670.15625 435.882812 670.898438 C 435.742188 671.257812 435.585938 671.636719 435.445312 672.019531 L 435.222656 672.578125 L 435.125 672.859375 L 435.003906 673.199219 C 434.363281 674.996094 434.085938 677.15625 434.824219 679.335938 C 434.882812 679.617188 435.023438 679.875 435.144531 680.136719 C 435.265625 680.394531 435.382812 680.65625 435.542969 680.917969 C 435.882812 681.394531 436.183594 681.894531 436.605469 682.316406 C 437.382812 683.214844 438.34375 683.894531 439.34375 684.496094 C 441.363281 685.636719 443.582031 686.273438 445.800781 686.535156 C 446.703125 686.636719 447.601562 686.695312 448.5 686.695312 C 449.820312 686.695312 451.160156 686.574219 452.460938 686.355469 C 454.660156 685.976562 456.820312 685.214844 458.78125 684.054688 C 459.78125 683.496094 460.660156 682.753906 461.5 681.976562 C 462.277344 681.136719 463.019531 680.257812 463.5 679.238281 C 463.617188 678.976562 463.757812 678.757812 463.878906 678.476562 L 464.179688 677.597656 C 464.417969 676.9375 464.4375 676.617188 464.519531 676.195312 L 464.539062 676.035156 L 464.597656 675.71875 L 464.636719 675.398438 L 464.699219 674.738281 C 464.71875 674.296875 464.757812 673.878906 464.777344 673.4375 C 464.898438 671.71875 464.898438 670 464.839844 668.339844 C 464.777344 666.660156 464.660156 665.019531 464.417969 663.4375 C 464.320312 662.660156 464.179688 661.839844 464.039062 661.078125 C 463.898438 660.320312 463.757812 659.582031 463.617188 658.839844 C 463.039062 655.882812 462.320312 653.042969 461.238281 650.460938 C 461.179688 650.300781 461.097656 650.160156 461.039062 650.003906 C 460.558594 648.902344 460.019531 647.84375 459.378906 646.863281 L 459.121094 646.484375 L 459 646.300781 L 458.917969 646.183594 L 458.839844 646.082031 C 458.640625 645.824219 458.460938 645.542969 458.261719 645.304688 C 457.859375 644.804688 457.441406 644.34375 457 643.921875 C 455.28125 642.222656 453.441406 641.144531 451.882812 640.382812 C 451.660156 640.285156 451.441406 640.183594 451.242188 640.082031 C 452.199219 639.945312 453.140625 639.84375 454.0625 639.765625 C 455.101562 639.683594 456.101562 639.644531 457.078125 639.644531 C 457.941406 639.644531 458.78125 639.683594 459.597656 639.722656 C 471.015625 640.503906 478.257812 646.542969 481.875 650.621094 C 483.835938 652.820312 486.292969 654.121094 489.152344 655.199219 C 494.253906 657.121094 499.253906 659.300781 504.492188 660.960938 C 505.910156 661.398438 507.3125 661.738281 507.449219 663.359375 C 507.46875 663.78125 507.492188 664.257812 507.46875 664.71875 Z M 321.503906 769.800781 C 319.226562 768.839844 316.886719 767.640625 314.648438 766.140625 C 312.40625 764.640625 310.328125 762.78125 308.566406 760.660156 C 306.867188 758.621094 305.429688 756.242188 304.449219 753.84375 C 303.449219 751.421875 302.828125 748.882812 302.648438 746.363281 C 302.46875 743.824219 302.789062 741.265625 303.6875 738.945312 C 304.148438 737.785156 304.707031 736.6875 305.410156 735.6875 C 305.589844 735.445312 305.75 735.1875 305.929688 734.945312 L 306.089844 734.707031 L 306.207031 734.566406 L 306.46875 734.265625 C 306.648438 734.066406 306.910156 733.785156 307.128906 733.566406 C 307.347656 733.367188 307.566406 733.144531 307.808594 732.964844 C 309.648438 731.40625 311.746094 730.445312 313.707031 729.867188 C 314.6875 729.566406 315.667969 729.386719 316.585938 729.246094 C 316.785156 729.226562 317.066406 729.1875 317.265625 729.167969 C 317.484375 729.148438 317.707031 729.128906 317.925781 729.105469 C 318.386719 729.066406 318.785156 729.046875 319.1875 729.046875 C 319.386719 729.046875 319.585938 729.046875 319.785156 729.046875 C 321.144531 729.046875 322.324219 729.148438 323.324219 729.265625 C 324.445312 729.386719 325.324219 729.546875 325.925781 729.648438 C 326.503906 729.746094 326.824219 729.808594 326.824219 729.808594 L 326.722656 730.527344 C 326.722656 730.527344 326.40625 730.527344 325.824219 730.507812 C 325.464844 730.488281 325.003906 730.488281 324.464844 730.488281 C 324.105469 730.488281 323.707031 730.488281 323.265625 730.507812 C 322.183594 730.546875 320.84375 730.625 319.40625 730.867188 C 317.964844 731.105469 316.347656 731.527344 314.808594 732.226562 C 313.265625 732.945312 311.765625 733.964844 310.648438 735.285156 C 310.507812 735.445312 310.386719 735.625 310.246094 735.804688 L 309.90625 736.304688 L 309.707031 736.644531 L 309.628906 736.765625 C 309.628906 736.765625 309.628906 736.765625 309.628906 736.785156 L 309.628906 736.804688 L 309.609375 736.84375 L 309.566406 736.925781 L 309.289062 737.527344 C 308.90625 738.34375 308.648438 739.207031 308.46875 740.105469 C 307.769531 743.683594 308.96875 747.742188 311.128906 751.183594 C 312.226562 752.921875 313.546875 754.421875 315.085938 755.78125 C 316.566406 757.0625 318.226562 758.121094 319.984375 758.960938 C 321.585938 759.703125 323.226562 760.261719 324.84375 760.703125 C 324.664062 764.21875 324.984375 767.800781 325.804688 771.398438 C 324.425781 770.898438 322.964844 770.417969 321.503906 769.800781 Z M 457.238281 672.835938 L 457.238281 672.898438 C 457.21875 673.296875 457.179688 673.675781 457.160156 674.078125 L 457.121094 674.578125 L 457.121094 674.636719 C 457.121094 674.675781 457.101562 674.699219 457.101562 674.738281 C 457.082031 674.855469 457.058594 674.957031 457.039062 675.078125 L 456.898438 675.515625 C 456.839844 675.636719 456.78125 675.738281 456.738281 675.855469 C 456.71875 675.898438 456.601562 676.097656 456.179688 676.578125 C 455.742188 676.976562 455.378906 677.257812 455.101562 677.417969 C 455.058594 677.4375 455.019531 677.457031 454.980469 677.496094 C 453.859375 678.15625 452.582031 678.617188 451.222656 678.855469 C 450.359375 678.996094 449.441406 679.078125 448.542969 679.078125 C 447.941406 679.078125 447.320312 679.035156 446.722656 678.976562 C 445.382812 678.816406 444.203125 678.476562 443.203125 677.917969 C 442.5625 677.515625 442.382812 677.335938 442.34375 677.296875 C 442.28125 677.21875 442.222656 677.15625 442.144531 677.097656 C 442.121094 677.058594 442.082031 677.015625 442.0625 676.976562 L 442.042969 676.917969 C 442.042969 676.898438 442.023438 676.898438 442.023438 676.875 C 441.941406 676.617188 442.003906 676.195312 442.164062 675.738281 C 442.183594 675.675781 442.203125 675.597656 442.242188 675.515625 L 442.304688 675.316406 L 442.324219 675.277344 L 442.503906 674.816406 C 442.621094 674.515625 442.742188 674.238281 442.84375 673.9375 L 442.960938 673.636719 C 442.960938 673.636719 442.960938 673.617188 442.984375 673.617188 C 443.164062 673.136719 443.34375 672.675781 443.542969 672.199219 L 443.863281 671.398438 C 443.863281 671.378906 443.863281 671.378906 443.882812 671.359375 C 444.503906 669.738281 445.042969 668.277344 445.523438 666.917969 C 446.582031 663.9375 447.5 661.101562 448.222656 658.480469 C 448.960938 655.839844 449.5 653.203125 449.820312 650.621094 C 449.941406 649.660156 450.019531 648.742188 450.042969 647.863281 C 450.703125 648.28125 451.28125 648.722656 451.78125 649.222656 C 451.800781 649.242188 451.820312 649.261719 451.859375 649.300781 C 452.0625 649.480469 452.261719 649.722656 452.480469 649.980469 C 452.519531 650.023438 452.5625 650.0625 452.582031 650.101562 C 452.601562 650.121094 452.621094 650.160156 452.640625 650.183594 C 452.699219 650.261719 452.78125 650.363281 452.839844 650.441406 L 452.878906 650.480469 C 452.921875 650.542969 452.960938 650.601562 453 650.683594 L 453.179688 650.941406 C 453.582031 651.582031 453.980469 652.363281 454.378906 653.320312 C 455.121094 655.101562 455.742188 657.339844 456.300781 660.179688 L 456.398438 660.761719 C 456.5 661.300781 456.601562 661.839844 456.699219 662.398438 C 456.820312 663.058594 456.921875 663.757812 457.019531 664.378906 C 457.019531 664.398438 457.019531 664.417969 457.019531 664.4375 C 457.179688 665.640625 457.300781 666.980469 457.359375 668.578125 C 457.339844 670.039062 457.339844 671.476562 457.238281 672.835938 Z M 457.238281 672.835938 " fill-opacity="1" fill-rule="nonzero"/></g><path fill="#1c2e44" d="M 479.496094 655.722656 C 478.875 655.480469 478.234375 655.382812 477.65625 655.382812 C 476.4375 655.382812 475.398438 655.839844 475.015625 656.679688 C 474.4375 657.921875 475.515625 659.5 477.394531 660.21875 C 478.015625 660.460938 478.65625 660.558594 479.234375 660.558594 C 480.457031 660.558594 481.496094 660.101562 481.875 659.261719 C 482.457031 658.019531 481.394531 656.441406 479.496094 655.722656 Z M 479.496094 655.722656 " fill-opacity="1" fill-rule="nonzero"/></svg>